<svg width="28" height="29" viewBox="0 0 28 29" fill="none" xmlns="http://www.w3.org/2000/svg">
<path fill-rule="evenodd" clip-rule="evenodd" d="M5.71797 9.66181C5.49349 9.66181 5.30829 9.847 5.30829 10.0715V21.3772C5.30829 21.6017 5.49348 21.7868 5.71797 21.7868H22.5695C22.794 21.7868 22.9792 21.6017 22.9792 21.3772V10.0715C22.9792 9.847 22.794 9.66181 22.5695 9.66181H5.71797ZM4.66211 10.0715C4.66211 9.49013 5.13661 9.01562 5.71797 9.01562H22.5695C23.1509 9.01562 23.6254 9.49013 23.6254 10.0715V21.3772C23.6254 21.9585 23.1509 22.433 22.5695 22.433H5.71797C5.13662 22.433 4.66211 21.9585 4.66211 21.3772V10.0715Z" fill="#0895DA" stroke="#0895DA" stroke-width="0.5" stroke-miterlimit="10" stroke-linecap="round" stroke-linejoin="round"/>
<path d="M22.9971 21.3701C23.0892 21.4584 23.1691 21.5597 23.2178 21.6729C23.2674 21.7883 23.2905 21.9349 23.2314 22.082C23.1724 22.2289 23.0549 22.319 22.9395 22.3682C22.8261 22.4163 22.6978 22.4336 22.5703 22.4336H5.71875C5.59127 22.4336 5.463 22.4162 5.34961 22.3682C5.23406 22.3192 5.11582 22.2292 5.05664 22.082C4.99761 21.9349 5.02083 21.7881 5.07031 21.6729C5.11891 21.5598 5.19904 21.4585 5.29102 21.3701L11.417 15.502L11.8848 15.9482L5.79004 21.7871H22.499L16.4033 15.9492L16.8701 15.502L22.9971 21.3701Z" fill="#0895DA"/>
<path d="M22.9971 21.3701L22.8241 21.5507L22.8242 21.5507L22.9971 21.3701ZM23.2178 21.6729L23.4475 21.5742L23.4475 21.5742L23.2178 21.6729ZM23.2314 22.082L23.4634 22.1753L23.4635 22.1752L23.2314 22.082ZM22.9395 22.3682L23.0372 22.5983L23.0373 22.5982L22.9395 22.3682ZM22.5703 22.4336V22.6836H22.5704L22.5703 22.4336ZM5.34961 22.3682L5.2521 22.5984L5.25215 22.5984L5.34961 22.3682ZM5.05664 22.082L4.82462 22.1751L4.82468 22.1753L5.05664 22.082ZM5.07031 21.6729L4.84064 21.5741L4.84059 21.5742L5.07031 21.6729ZM5.29102 21.3701L5.11808 21.1896L5.11783 21.1898L5.29102 21.3701ZM11.417 15.502L11.5896 15.3211C11.4928 15.2288 11.3406 15.2289 11.2441 15.3214L11.417 15.502ZM11.8848 15.9482L12.0577 16.1288C12.107 16.0816 12.1348 16.0162 12.1348 15.948C12.1347 15.8797 12.1067 15.8145 12.0573 15.7674L11.8848 15.9482ZM5.79004 21.7871L5.61709 21.6066C5.54337 21.6772 5.52 21.7856 5.55806 21.8803C5.59611 21.975 5.68795 22.0371 5.79004 22.0371V21.7871ZM22.499 21.7871V22.0371C22.6011 22.0371 22.693 21.975 22.731 21.8803C22.7691 21.7855 22.7457 21.6772 22.6719 21.6066L22.499 21.7871ZM16.4033 15.9492L16.2304 15.7687C16.1811 15.8159 16.1533 15.8811 16.1533 15.9492C16.1533 16.0174 16.1812 16.0826 16.2304 16.1298L16.4033 15.9492ZM16.8701 15.502L17.043 15.3214C16.9463 15.2288 16.7938 15.2288 16.6972 15.3214L16.8701 15.502ZM22.9971 21.3701L22.8242 21.5507C22.9009 21.6242 22.9568 21.6987 22.9881 21.7715L23.2178 21.6729L23.4475 21.5742C23.3815 21.4206 23.2776 21.2925 23.17 21.1895L22.9971 21.3701ZM23.2178 21.6729L22.9881 21.7715C23.0196 21.845 23.0269 21.9204 22.9994 21.9889L23.2314 22.082L23.4635 22.1752C23.5541 21.9494 23.5151 21.7316 23.4475 21.5742L23.2178 21.6729ZM23.2314 22.082L22.9995 21.9888C22.9718 22.0577 22.9144 22.1071 22.8416 22.1381L22.9395 22.3682L23.0373 22.5982C23.1955 22.5309 23.373 22.4001 23.4634 22.1753L23.2314 22.082ZM22.9395 22.3682L22.8417 22.1381C22.7696 22.1687 22.6776 22.1836 22.5702 22.1836L22.5703 22.4336L22.5704 22.6836C22.718 22.6836 22.8826 22.6639 23.0372 22.5983L22.9395 22.3682ZM22.5703 22.4336V22.1836H5.71875V22.4336V22.6836H22.5703V22.4336ZM5.71875 22.4336V22.1836C5.61176 22.1836 5.51957 22.1686 5.44707 22.1379L5.34961 22.3682L5.25215 22.5984C5.40643 22.6637 5.57078 22.6836 5.71875 22.6836V22.4336ZM5.34961 22.3682L5.44712 22.138C5.3738 22.1069 5.3162 22.0574 5.2886 21.9888L5.05664 22.082L4.82468 22.1753C4.91544 22.4011 5.09433 22.5315 5.2521 22.5984L5.34961 22.3682ZM5.05664 22.082L5.28867 21.9889C5.26119 21.9205 5.26854 21.8448 5.30004 21.7715L5.07031 21.6729L4.84059 21.5742C4.77312 21.7314 4.73403 21.9493 4.82462 22.1751L5.05664 22.082ZM5.07031 21.6729L5.29999 21.7716C5.33119 21.699 5.38722 21.6244 5.4642 21.5504L5.29102 21.3701L5.11783 21.1898C5.01086 21.2926 4.90664 21.4206 4.84064 21.5741L5.07031 21.6729ZM5.29102 21.3701L5.46395 21.5507L11.5899 15.6825L11.417 15.502L11.2441 15.3214L5.11808 21.1896L5.29102 21.3701ZM11.417 15.502L11.2444 15.6828L11.7122 16.1291L11.8848 15.9482L12.0573 15.7674L11.5896 15.3211L11.417 15.502ZM11.8848 15.9482L11.7118 15.7677L5.61709 21.6066L5.79004 21.7871L5.96299 21.9676L12.0577 16.1288L11.8848 15.9482ZM5.79004 21.7871V22.0371H22.499V21.7871V21.5371H5.79004V21.7871ZM22.499 21.7871L22.6719 21.6066L16.5762 15.7687L16.4033 15.9492L16.2304 16.1298L22.3261 21.9677L22.499 21.7871ZM16.4033 15.9492L16.5763 16.1297L17.0431 15.6825L16.8701 15.502L16.6972 15.3214L16.2304 15.7687L16.4033 15.9492ZM16.8701 15.502L16.6972 15.6825L22.8241 21.5507L22.9971 21.3701L23.17 21.1896L17.043 15.3214L16.8701 15.502Z" fill="#0895DA"/>
<path fill-rule="evenodd" clip-rule="evenodd" d="M5.78962 9.66376L13.8383 17.3733C14.0046 17.5325 14.2837 17.5325 14.45 17.3733L22.4987 9.66376H5.78962ZM5.34938 9.08336C5.46284 9.03517 5.59077 9.01758 5.71841 9.01758H22.5699C22.6974 9.01758 22.8252 9.03506 22.9386 9.08307C23.0542 9.132 23.1726 9.22164 23.2318 9.36891C23.291 9.51617 23.2676 9.66279 23.2181 9.77814C23.1695 9.89132 23.0894 9.99254 22.9973 10.081L14.8969 17.8401L14.8968 17.8402C14.4806 18.2384 13.8077 18.2384 13.3916 17.8402L13.3915 17.8401L5.29148 10.0814C5.29144 10.0814 5.29141 10.0813 5.29137 10.0813C5.19917 9.99304 5.11894 9.8919 5.07029 9.77867C5.02068 9.66319 4.99742 9.51661 5.05649 9.36945C5.11557 9.22229 5.23371 9.13248 5.34938 9.08336Z" fill="#0895DA" stroke="#0895DA" stroke-width="0.5" stroke-miterlimit="10" stroke-linecap="round" stroke-linejoin="round"/>
</svg>
