<svg width="86" height="104" viewBox="0 0 86 104" fill="none" xmlns="http://www.w3.org/2000/svg">
<path d="M34.8526 78.6052L34.4526 76.7052C32.5457 67.6261 26.8838 59.7815 18.8667 55.1161L22.308 53.723C26.9148 51.8541 32.1354 52.261 36.3973 54.823M79.9718 42.0819C87.0613 56.2229 85.6717 73.8122 75.0029 86.8326C60.5412 104.512 34.4831 107.111 16.8042 92.6497C2.08042 80.6017 -2.185 60.4987 5.16311 43.9163C5.22518 43.7646 5.30449 43.5956 5.40448 43.3991C7.4803 39.1854 16.7318 24.3581 32.0591 21.7582M5.40103 43.4025L4.3907 33.2993C2.99073 19.2479 14.287 7.16885 28.4005 7.63781C33.8521 7.82056 39.2692 6.71714 44.2105 4.41029L49.3828 2L50.4173 12.3653C51.8069 26.3822 40.583 38.4337 26.504 38.0337L25.6937 38.0061C22.5386 37.9199 19.38 38.2578 16.3387 39.0233M49.9069 86.0188L34.8486 78.6017L36.6417 71.2467C41.1071 52.9368 53.7241 37.6854 70.872 29.8683L81.2304 25.1478L75.9477 31.0166C63.2032 45.1749 54.531 62.5228 50.8517 81.2155L49.9069 86.0188Z" stroke="#ED1C29" stroke-width="3" stroke-linecap="round" stroke-linejoin="round"/>
</svg>
