<svg width="28" height="29" viewBox="0 0 28 29" fill="none" xmlns="http://www.w3.org/2000/svg">
<path d="M8.21445 6.10549C8.47675 6.12197 8.72231 6.24004 8.89902 6.43459L12.6324 10.541L11.8844 11.2197L11.8834 11.2207H11.8853L12.6324 10.541C12.809 10.735 12.9031 10.9898 12.8951 11.252C12.887 11.5142 12.7777 11.7636 12.5894 11.9463L10.1041 14.3653C10.2122 14.9432 10.5776 16.116 11.7818 17.3213C12.8358 18.3726 13.8635 18.7837 14.4937 18.9444L14.7379 18.999L17.1559 16.5127C17.3386 16.3244 17.5879 16.2142 17.8502 16.2061C18.1123 16.198 18.3672 16.2923 18.5611 16.4688L22.6685 20.2031C22.8632 20.3797 22.9815 20.6255 22.9977 20.8877C23.0137 21.1501 22.9262 21.4084 22.7545 21.6074L20.8756 23.8018L20.8072 23.8633C20.642 24.0007 20.4364 24.083 20.2203 24.0957C20.1863 24.0978 20.0612 24.1035 19.858 24.1035V22.8535C19.9342 22.8535 19.9964 22.8518 20.0435 22.8506L21.6539 20.9697L17.8912 17.5488L15.6344 19.8701C15.3414 20.1715 14.9163 20.3054 14.5035 20.2266C13.724 20.0777 12.3119 19.6163 10.899 18.207L10.8971 18.2051C9.48443 16.7912 9.02141 15.3743 8.87558 14.5947C8.79882 14.1837 8.93334 13.7615 9.233 13.4697L11.5523 11.211L8.13046 7.44728L6.25351 9.05666C6.23243 9.83623 6.26061 14.9078 10.2281 18.877H10.2271C13.9253 22.5741 18.5838 22.8535 19.858 22.8535V24.1035L19.5543 24.0996C17.8319 24.0523 13.1381 23.5545 9.34335 19.7608C4.70373 15.119 4.99324 9.13543 5.00839 8.88283C5.0207 8.66674 5.10181 8.46136 5.23886 8.29592L5.30136 8.22756L7.49374 6.3467C7.69338 6.17566 7.95206 6.08908 8.21445 6.10549ZM11.8853 11.2207H11.8834L12.6324 10.541L11.8853 11.2207ZM11.7144 11.0528L11.7174 11.0508L11.7184 11.0488C11.7171 11.0501 11.7157 11.0515 11.7144 11.0528Z" fill="#0895DA"/>
</svg>
