<svg width="28" height="28" viewBox="0 0 28 28" fill="none" xmlns="http://www.w3.org/2000/svg">
<path d="M14 2C21.7192 2 28 6.77531 28 12.646C28 14.996 27.0287 17.1114 24.9987 19.1957C22.0622 22.3639 15.4945 26.2225 14 26.8129C12.5475 27.3869 12.7155 26.4898 12.782 26.1356L12.7873 26.1061L12.9867 24.9828C13.034 24.6483 13.083 24.1284 12.9412 23.7972C12.7837 23.4315 12.1642 23.2413 11.7092 23.1494C4.9805 22.318 0 17.9084 0 12.646C0 6.77531 6.2825 2 14 2ZM8.7885 14.6041H6.11975V10.0649C6.11975 9.99733 6.09123 9.9325 6.04041 9.88458C5.98959 9.83665 5.9206 9.8095 5.8485 9.80907H4.865C4.82915 9.80907 4.79365 9.81569 4.76053 9.82854C4.72741 9.8414 4.69731 9.86024 4.67196 9.884C4.64661 9.90775 4.6265 9.93595 4.61278 9.96699C4.59906 9.99803 4.592 10.0313 4.592 10.0649V15.7815C4.592 15.8487 4.62175 15.9127 4.669 15.9569V15.9586L4.6725 15.9619L4.676 15.9651C4.72675 16.0109 4.79459 16.0362 4.865 16.0357H8.7885C8.939 16.0357 9.05975 15.9209 9.05975 15.7798V14.8615C9.05998 14.8279 9.05315 14.7946 9.03964 14.7635C9.02613 14.7324 9.00622 14.704 8.98103 14.6801C8.95584 14.6562 8.92587 14.6372 8.89284 14.6242C8.85981 14.6111 8.82435 14.6043 8.7885 14.6041ZM10.1728 9.80907C10.1003 9.80907 10.0309 9.83602 9.97971 9.884C9.92851 9.93197 9.89975 9.99704 9.89975 10.0649V15.7815C9.89975 15.9225 10.0223 16.0357 10.1728 16.0357H11.1562C11.3068 16.0357 11.4275 15.9209 11.4275 15.7815V10.0649C11.4275 9.99733 11.399 9.9325 11.3482 9.88458C11.2973 9.83665 11.2284 9.8095 11.1562 9.80907H10.1728ZM16.933 9.80907C16.8606 9.80907 16.7912 9.83602 16.74 9.884C16.6888 9.93197 16.66 9.99704 16.66 10.0649V13.4594L13.8652 9.92386C13.8582 9.91525 13.8506 9.90704 13.8425 9.89926V9.89762C13.837 9.89188 13.8311 9.88641 13.825 9.88122L13.8197 9.8763C13.8137 9.87093 13.8073 9.86599 13.8005 9.86155H13.7987L13.79 9.85499L13.7847 9.85171C13.782 9.8498 13.7791 9.84815 13.776 9.84679L13.762 9.83859H13.7585L13.7533 9.83531L13.7358 9.82875L13.7287 9.82547C13.723 9.82352 13.7172 9.82188 13.7113 9.82055H13.7078L13.7025 9.81891L13.6868 9.81563H13.6763L13.671 9.81399H13.664L13.6605 9.81235H12.656C12.5839 9.81235 12.5147 9.83908 12.4636 9.8867C12.4124 9.93432 12.3835 9.99897 12.383 10.0665V15.7831C12.383 15.9242 12.5055 16.0373 12.656 16.0373H13.636C13.7882 16.0373 13.9107 15.9225 13.9107 15.7831V12.3886L16.7108 15.9307C16.7294 15.9551 16.7525 15.9762 16.779 15.993L16.7808 15.9947L16.7983 16.0045L16.8053 16.0078C16.8098 16.0103 16.8144 16.0125 16.8193 16.0143L16.8315 16.0193L16.8403 16.0225C16.846 16.0244 16.8519 16.026 16.8577 16.0275H16.863C16.8858 16.0336 16.9093 16.0369 16.933 16.0373H17.913C18.0653 16.0373 18.1877 15.9225 18.1877 15.7831V10.0649C18.1877 9.99704 18.159 9.93197 18.1078 9.884C18.0566 9.83602 17.9872 9.80907 17.9148 9.80907H16.933ZM23.6093 10.9849V10.0665C23.6095 10.0329 23.6026 9.99963 23.5891 9.96851C23.5756 9.93739 23.5557 9.90906 23.5305 9.88516C23.5053 9.86125 23.4754 9.84222 23.4423 9.82917C23.4093 9.81611 23.3739 9.80928 23.338 9.80907H19.4145C19.3439 9.80915 19.2761 9.83504 19.2255 9.88122H19.2237L19.222 9.8845L19.2185 9.88942C19.1696 9.93641 19.142 9.99928 19.1415 10.0649V15.7815C19.1415 15.8487 19.1712 15.9127 19.2185 15.9569L19.222 15.9619L19.2255 15.9651C19.2764 16.0107 19.3441 16.036 19.4145 16.0357H23.338C23.4885 16.0357 23.6093 15.9209 23.6093 15.7798V14.8615C23.6095 14.8279 23.6026 14.7946 23.5891 14.7635C23.5756 14.7324 23.5557 14.704 23.5305 14.6801C23.5053 14.6562 23.4754 14.6372 23.4423 14.6242C23.4093 14.6111 23.3739 14.6043 23.338 14.6041H20.6675V13.6382H23.3363C23.4867 13.6382 23.6075 13.5234 23.6075 13.3823V12.464C23.6077 12.4304 23.6009 12.3971 23.5874 12.366C23.5739 12.3349 23.554 12.3066 23.5288 12.2826C23.5036 12.2587 23.4736 12.2397 23.4406 12.2267C23.4076 12.2136 23.3721 12.2068 23.3363 12.2066H20.6675V11.2407H23.3363C23.4867 11.2407 23.6075 11.1259 23.6075 10.9849H23.6093Z" fill="white"/>
</svg>
