<?xml version="1.0" encoding="UTF-8"?>
<svg xmlns="http://www.w3.org/2000/svg" width="28" height="28" viewBox="0 0 28 28" fill="none">
  <path d="M25.5591 20.7998L20.0827 15.8205C19.824 15.5849 19.4837 15.4592 19.134 15.47C18.7842 15.4809 18.4524 15.6273 18.2087 15.8785L14.9848 19.1939C14.2088 19.0457 12.6488 18.5594 11.0429 16.9576C9.437 15.3504 8.95066 13.7863 8.8065 13.0157L12.1193 9.79046C12.3704 9.54679 12.5169 9.21496 12.5277 8.86521C12.5385 8.51546 12.4128 8.17522 12.1772 7.9165L7.19928 2.44147C6.96357 2.18194 6.63598 2.02451 6.28607 2.00263C5.93617 1.98074 5.59151 2.09612 5.3253 2.32426L2.40185 4.83141C2.16893 5.06517 2.02991 5.37628 2.01116 5.70574C1.99095 6.04254 1.60565 14.0207 7.79205 20.2097C13.189 25.6053 19.9493 26 21.8112 26C22.0833 26 22.2503 25.9919 22.2948 25.9892C22.624 25.9698 22.9346 25.8303 23.1678 25.5972L25.6736 22.6724C25.9027 22.4071 26.0189 22.0627 25.9975 21.7128C25.9761 21.3629 25.8188 21.0353 25.5591 20.7998Z" fill="white"></path>
</svg>
