<?xml version="1.0" encoding="UTF-8"?>
<svg xmlns="http://www.w3.org/2000/svg" width="117" height="34" viewBox="0 0 117 34" fill="none">
  <path d="M22.127 0C24.7677 5.90942e-05 27.3007 1.06057 29.168 2.94824C31.0352 4.83595 32.084 7.39683 32.084 10.0664C32.0839 12.7358 31.0351 15.296 29.168 17.1836C27.9799 18.3846 26.5216 19.2485 24.9385 19.7197L24.959 19.8633L32.8359 34H26.9062L18.9404 20.1318H13.7188L19.2061 14.4053H22.127V14.4023C22.1562 14.4029 22.1855 14.4053 22.2148 14.4053C24.561 14.4053 26.4637 12.4831 26.4639 10.1113C26.4639 7.73946 24.5611 5.81641 22.2148 5.81641C22.1855 5.81641 22.1562 5.81776 22.127 5.81836V5.81641H10.001L7.43457 14.4053H13.9844L0.884766 34L5.04492 20.1318H0L5.66406 0.000976562H22.127V0ZM60.8076 25.1426C61.3528 25.1426 61.8169 25.2143 62.1992 25.3574C62.5885 25.4934 62.9112 25.6717 63.166 25.8936C63.4279 26.1082 63.6362 26.3413 63.792 26.5918C63.9548 26.8352 64.0754 27.0681 64.1533 27.29C64.2311 27.5045 64.2805 27.6832 64.3018 27.8262C64.3295 27.9595 64.3442 28.0277 64.3447 28.0303H62.7197C62.7192 28.0284 62.7045 27.9818 62.6768 27.8906C62.6555 27.7905 62.6098 27.672 62.5391 27.5361C62.4683 27.3932 62.362 27.254 62.2207 27.1182C62.0862 26.9822 61.9016 26.8675 61.668 26.7744C61.4414 26.6742 61.1582 26.624 60.8184 26.624C60.3298 26.624 59.9187 26.7531 59.5859 27.0107C59.2605 27.2612 59.0126 27.5831 58.8428 27.9766C58.6799 28.3702 58.5986 28.7824 58.5986 29.2119C58.5987 29.6412 58.68 30.0563 58.8428 30.457C59.0126 30.8505 59.2605 31.176 59.5859 31.4336C59.9187 31.6841 60.3298 31.8096 60.8184 31.8096C61.1582 31.8096 61.4414 31.763 61.668 31.6699C61.9016 31.5769 62.0862 31.4622 62.2207 31.3262C62.362 31.1832 62.4683 31.044 62.5391 30.9082C62.6098 30.7652 62.6555 30.6467 62.6768 30.5537C62.7045 30.4626 62.7191 30.416 62.7197 30.4141H64.3447C64.3442 30.4168 64.3295 30.4886 64.3018 30.6289C64.2805 30.7648 64.2311 30.9435 64.1533 31.165C64.0754 31.3798 63.9548 31.6128 63.792 31.8633C63.6362 32.1066 63.4279 32.3397 63.166 32.5615C62.9112 32.7762 62.5885 32.9545 62.1992 33.0977C61.8169 33.2337 61.3528 33.3018 60.8076 33.3018C60.1563 33.3017 59.5862 33.188 59.0977 32.959C58.6162 32.7228 58.2124 32.4109 57.8867 32.0244C57.5611 31.6309 57.3171 31.1906 57.1543 30.7041C56.9915 30.2175 56.9102 29.7199 56.9102 29.2119C56.9102 28.7109 56.9914 28.2162 57.1543 27.7295C57.3171 27.2429 57.5611 26.8063 57.8867 26.4199C58.2124 26.0262 58.6162 25.7144 59.0977 25.4854C59.5862 25.2563 60.1563 25.1426 60.8076 25.1426ZM44.6641 26.7598H42.2529V33.2666H40.6172V26.7598H38.207V25.3213H44.6641V26.7598ZM53.4756 26.7598H49.6953V28.542H52.9873V29.9268H49.6953V31.8271H53.5293V33.2666H48.0596V25.3213H53.4756V26.7598ZM69.3438 28.4883H72.4023V25.3213H74.0381V33.2666H72.4023V29.9268H69.3438V33.2666H67.708V25.3213H69.3438V28.4883ZM111.07 7.42676C111.943 7.42678 112.693 7.53996 113.318 7.7666C113.956 7.98133 114.486 8.26811 114.911 8.62598C115.336 8.97191 115.672 9.3417 115.92 9.73535C116.179 10.1289 116.374 10.5045 116.504 10.8623C116.646 11.2083 116.734 11.495 116.77 11.7217C116.817 11.9363 116.841 12.0439 116.841 12.0439H114.133C114.133 12.0439 114.097 11.9363 114.026 11.7217C113.956 11.5069 113.814 11.256 113.602 10.9697C113.389 10.6715 113.076 10.4149 112.663 10.2002C112.262 9.97364 111.731 9.86038 111.07 9.86035C110.209 9.86035 109.488 10.0754 108.91 10.5049C108.344 10.9224 107.913 11.465 107.618 12.1328C107.335 12.7889 107.193 13.4756 107.193 14.1914C107.193 14.9308 107.341 15.6405 107.636 16.3203C107.931 16.9883 108.361 17.5374 108.928 17.9668C109.506 18.3843 110.226 18.5928 111.088 18.5928C112.032 18.5928 112.776 18.3485 113.318 17.8594C113.873 17.3703 114.203 16.7081 114.31 15.873H110.911V13.708H117V14.7275C117 16.1113 116.734 17.2744 116.203 18.2168C115.684 19.1473 114.97 19.8519 114.062 20.3291C113.165 20.7943 112.138 21.0264 110.981 21.0264C109.884 21.0264 108.923 20.8357 108.097 20.4541C107.271 20.0724 106.58 19.5592 106.025 18.915C105.483 18.2589 105.075 17.5307 104.804 16.7314C104.532 15.9204 104.396 15.091 104.396 14.2441C104.397 13.3973 104.532 12.5679 104.804 11.7568C105.087 10.9458 105.5 10.2183 106.043 9.57422C106.598 8.9181 107.294 8.39932 108.132 8.01758C108.97 7.62393 109.949 7.42676 111.07 7.42676ZM44.3066 7.60547C45.2743 7.60548 46.1007 7.77905 46.7852 8.125C47.4812 8.47094 48.0122 8.94836 48.3779 9.55664C48.7554 10.165 48.9443 10.8688 48.9443 11.668C48.9443 12.5387 48.7257 13.3019 48.2891 13.958C47.8524 14.6022 47.2331 15.0738 46.4307 15.3721L49.2803 20.8477H46.2539L43.6514 15.748H41.7227V20.8477H38.9961V7.60547H44.3066ZM63.4756 20.8477H60.6084L59.7764 18.2529H54.6426L53.793 20.8477H50.9258L55.3857 7.60547H59.0146L63.4756 20.8477ZM68.625 13.4932L71.5986 7.60547H74.5898L69.9883 16.3203V20.8477H67.2617V16.3203L62.6592 7.60547H65.6514L68.625 13.4932ZM82.8525 14.4238L85.9326 7.60547H89.4912V20.8477H86.7998V11.8291L84.1094 17.752H81.5781L78.8701 11.793V20.8477H76.1797V7.60547H79.8613L82.8525 14.4238ZM103.771 20.8477H100.902L100.071 18.2529H94.9375L94.0879 20.8477H91.2197L95.6807 7.60547H99.3096L103.771 20.8477ZM55.4043 15.8555H59.0146L57.209 10.3262L55.4043 15.8555ZM95.6982 15.8555H99.3096L97.5039 10.3262L95.6982 15.8555ZM41.7227 13.4932H44.2715C44.8732 13.4931 45.3453 13.3262 45.6875 12.9922C46.0297 12.6582 46.2002 12.2459 46.2002 11.7568C46.2001 11.2561 46.0295 10.8388 45.6875 10.5049C45.3453 10.159 44.8732 9.98541 44.2715 9.98535H41.7227V13.4932Z" fill="url(#paint0_radial_502_4018)"></path>
  <defs>
    <radialGradient id="paint0_radial_502_4018" cx="0" cy="0" r="1" gradientTransform="matrix(155.241 -32.2994 -67.1593 77.9499 14.2496 27.4686)" gradientUnits="userSpaceOnUse">
      <stop offset="0.344103" stop-color="#0895DA"></stop>
      <stop offset="1" stop-color="#0376C9"></stop>
    </radialGradient>
  </defs>
</svg>
