<svg width="20" height="16" viewBox="0 0 20 16" fill="none" xmlns="http://www.w3.org/2000/svg">
<path fill-rule="evenodd" clip-rule="evenodd" d="M20 10.4597C20 7.71414 17.3027 5.49254 13.9759 5.49254C10.6489 5.49254 7.95181 7.71414 7.95181 10.4597C7.95181 13.1954 10.6489 15.417 13.9759 15.4269C14.6632 15.417 15.327 15.3199 15.9518 15.1403C15.9981 15.128 15.9943 15.1286 16.1155 15.105C16.2368 15.0814 16.3422 15.1403 16.4337 15.1881L17.7349 15.9522C17.7948 15.984 17.8303 16 17.8795 16C17.985 16 18.0746 15.9111 18.0723 15.809C18.0746 15.7525 18.0564 15.7077 18.0423 15.6604C18.0282 15.6131 17.8667 15.0304 17.7831 14.6627C17.7713 14.6106 17.7648 14.5806 17.7648 14.4821C17.7648 14.3835 17.8163 14.2776 17.9277 14.1851C19.1884 13.2958 20 11.9498 20 10.4597ZM11.9284 9.6C11.5261 9.6 11.1807 9.25795 11.1807 8.81266C11.1807 8.41386 11.5261 8.07164 11.9284 8.07164C12.3779 8.07164 12.7229 8.41386 12.7229 8.81266C12.7229 9.25795 12.3779 9.6 11.9284 9.6ZM15.9284 9.6C15.5261 9.6 15.1807 9.25795 15.1807 8.81266C15.1807 8.41386 15.5261 8.07164 15.9284 8.07164C16.3779 8.07164 16.7229 8.41386 16.7229 8.81266C16.7229 9.25795 16.3779 9.6 15.9284 9.6Z" fill="#A2A2A2"/>
<path fill-rule="evenodd" clip-rule="evenodd" d="M0 5.97015C0 7.74918 0.973287 9.36412 2.50602 10.4597C2.61892 10.5421 2.67933 10.6363 2.67929 10.7944C2.67933 10.8491 2.66965 10.9078 2.6506 10.9851C2.52247 11.5047 2.38172 12.0994 2.36145 12.1791C2.34117 12.2588 2.30922 12.3118 2.31325 12.3701C2.30922 12.5024 2.41681 12.609 2.55422 12.609C2.60225 12.609 2.64505 12.5896 2.6988 12.5612L4.28916 11.6537C4.38985 11.5934 4.50287 11.5622 4.57916 11.5622C4.65545 11.5622 4.78278 11.5857 4.86747 11.606C5.60478 11.7927 6.40087 11.9095 7.22892 11.8925C7.35852 11.9095 7.49069 11.9061 7.61446 11.8925C7.46525 11.4356 7.37949 10.9464 7.37349 10.4597C7.37949 7.44153 10.3296 5.00986 13.9759 5.01493C14.1009 5.00986 14.2313 5.01394 14.3614 5.01493C13.8173 2.17552 10.8299 0 7.22892 0C3.2349 0 0 2.66624 0 5.97015ZM4.77108 5.01493C4.23869 5.01493 3.80723 4.58737 3.80723 4.0597C3.80723 3.5322 4.23869 3.10448 4.77108 3.10448C5.30348 3.10448 5.73494 3.5322 5.73494 4.0597C5.73494 4.58737 5.30348 5.01493 4.77108 5.01493ZM9.59036 5.01493C9.05792 5.01493 8.62651 4.58737 8.62651 4.0597C8.62651 3.5322 9.05792 3.10448 9.59036 3.10448C10.1226 3.10448 10.5542 3.5322 10.5542 4.0597C10.5542 4.58737 10.1226 5.01493 9.59036 5.01493Z" fill="#A2A2A2"/>
</svg>
