<svg width="240" height="34" viewBox="0 0 240 34" fill="none" xmlns="http://www.w3.org/2000/svg">
<path d="M64.2341 8.15227H70.7224V17.7126H85.5709V8.15227H92.0591V32.6091H85.5709V22.6968H70.7224V32.6091H64.2341V8.15227ZM129.228 8.15227H135.725V27.6489H147.677V32.6171H129.236V8.15227H129.228ZM181.622 32.6091L170.342 8.15227H162.165L150.909 32.6091H157.757L159.365 28.921H173.134L174.742 32.6091H181.622ZM161.285 24.5448L166.206 13.2724H166.326L171.238 24.5448H161.285ZM206.023 8.15227V23.8488L190.966 8.15227H185.302V32.6091H191.646V16.7766L206.703 32.6091H212.335V8.15227H206.023ZM217.495 8.15227H240V12.9124H223.991V18.0486H237.552V22.4087H223.991V27.8489H240V32.6091H217.495V8.15227ZM103.555 31.7371C101.555 30.865 100.003 29.569 98.8993 27.8649C97.7953 26.1609 97.2432 24.0808 97.2432 21.6247V8.15227H103.739V21.4567C103.739 22.8488 104.003 24.0248 104.539 25.0008C105.068 25.9769 105.844 26.7049 106.86 27.2009C107.876 27.6969 109.14 27.9449 110.66 27.9449C112.18 27.9449 113.412 27.6969 114.444 27.2009C115.476 26.7049 116.244 25.9689 116.764 25.0008C117.284 24.0328 117.54 22.8488 117.54 21.4567V8.15227H124.052V21.6247C124.052 24.0808 123.5 26.1529 122.404 27.8569C121.308 29.561 119.756 30.849 117.748 31.7291C115.74 32.6091 113.372 33.0491 110.652 33.0491C107.932 33.0491 105.548 32.6091 103.547 31.7371H103.555Z" fill="#1E1E1E"/>
<path d="M35.9932 12.4324H46.8896L46.3535 13.9125H35.4572L34.8652 15.5525H45.7615L45.2255 17.0326H34.3291L33.7291 18.6886H44.6335L44.0975 20.1687H33.1931L32.6171 21.7447H21.7447L17.7846 32.6171H6.91223L10.8724 21.7447H0L0.536018 20.2647H11.4084L12.0164 18.5926H1.12804L1.66406 17.1126H12.5524L13.1444 15.4725H2.26408L2.80009 13.9925H13.6885L14.2805 12.3524H3.39211L3.92813 10.8724H14.8165L18.7766 0H29.649L25.6889 10.8724H36.5612L35.9932 12.4324ZM40.5214 0L36.5612 10.8724H47.4336L51.3937 0H40.5214ZM28.649 32.6091H39.5213L43.4815 21.7367H32.6091L28.649 32.6091Z" fill="#ED1C29"/>
</svg>
