<svg width="58" height="56" viewBox="0 0 58 56" fill="none" xmlns="http://www.w3.org/2000/svg">
<path d="M21.6515 41.4305H32.0046C33.5816 41.4305 34.8597 40.1219 34.8597 38.5073C34.8597 36.8927 33.5816 35.5841 32.0046 35.5841H28.2987C27.613 35.5841 26.9661 35.2529 26.5547 34.6913L26.3824 34.4555C25.5597 33.3323 24.2675 32.6699 22.8945 32.6699H16.6956C15.6443 32.6699 14.6282 33.0587 13.8353 33.7643L6.55176 40.2479" stroke="#ED1C29" stroke-width="1.875" stroke-linecap="round" stroke-linejoin="round"/>
<path d="M34.9607 39.2992L39.398 38.491L41.3793 36.115C42.668 34.5688 44.157 33.2116 45.806 32.0776L47.7733 30.7258C48.0476 30.5368 48.4027 30.5242 48.6893 30.6898C50.1097 31.5142 50.5739 33.3844 49.7107 34.8046L47.71 38.0932C45.8289 41.1856 43.4327 43.918 40.6322 46.1662L36.1123 49.7932H15.6821" stroke="#ED1C29" stroke-width="1.875" stroke-linecap="round" stroke-linejoin="round"/>
<path d="M14.5341 55L17.1201 52.435L17.1026 52.4044C13.9715 46.8802 9.48499 42.292 4.08606 39.0898L1.5 41.6548" stroke="#ED1C29" stroke-width="1.875" stroke-linecap="round" stroke-linejoin="round"/>
<path d="M42.5516 29.6209L40.3505 27.3673C39.8442 26.8489 39.1568 26.5573 38.4413 26.5573H37.782C37.0665 26.5573 36.3791 26.2657 35.8728 25.7473L33.4871 23.3047L31.0698 25.7797C30.5635 26.2981 29.8761 26.5897 29.1606 26.5897H24.9695C24.2539 26.5897 23.5666 26.8813 23.0602 27.3997L21.6714 28.8217" stroke="#ED1C29" stroke-width="1.875" stroke-linecap="round" stroke-linejoin="round"/>
<path d="M38.598 17.1639C40.3209 16.8039 42.0965 16.7409 43.851 16.9695L44.2237 17.0199C50.7337 17.8785 56.5001 12.691 56.5001 5.97158V1L53.9896 1.9C51.5934 2.76039 49.032 3.02499 46.5127 2.68299C39.9904 1.792 34.1924 6.98498 34.1924 13.726V18.6399L34.2223 18.6273" stroke="#ED1C29" stroke-width="1.875" stroke-linecap="round" stroke-linejoin="round"/>
<path d="M33.4201 23.3044C33.4025 19.8394 34.5822 16.9756 36.7481 14.3135C39.248 11.2409 42.9592 9.47507 46.8638 9.50027" stroke="#ED1C29" stroke-width="1.875" stroke-linecap="round" stroke-linejoin="round"/>
<path d="M21.1353 10.8481C19.4089 11.0839 17.6527 10.9003 16.0089 10.3099L14.2896 9.69434V13.1035C14.2896 17.7097 18.2416 21.2683 22.7035 20.6779L22.9602 20.6437C24.7833 20.4025 26.638 20.6311 28.3538 21.3061L29.5809 21.7885V18.4171C29.5809 13.7983 25.6078 10.2361 21.1353 10.8463V10.8481Z" stroke="#ED1C29" stroke-width="1.875" stroke-linecap="round" stroke-linejoin="round"/>
</svg>
