<svg width="36" height="43" viewBox="0 0 36 43" fill="none" xmlns="http://www.w3.org/2000/svg">
<path fill-rule="evenodd" clip-rule="evenodd" d="M17.9575 42.75C17.9575 42.75 35.4149 31.2955 35.4149 17.9318C35.4149 13.3749 33.5757 9.00465 30.3018 5.78244C27.0278 2.56022 22.5875 0.75 17.9575 0.75C13.3275 0.75 8.88708 2.56022 5.61317 5.78244C2.33926 9.00465 0.5 13.3749 0.5 17.9318C0.5 31.2955 17.9575 42.75 17.9575 42.75ZM23.7766 17.9318C23.7766 21.0949 21.1713 23.6591 17.9575 23.6591C14.7436 23.6591 12.1383 21.0949 12.1383 17.9318C12.1383 14.7687 14.7436 12.2045 17.9575 12.2045C21.1713 12.2045 23.7766 14.7687 23.7766 17.9318Z" fill="#ED1C29"/>
</svg>
