<svg width="80" height="104" viewBox="0 0 80 104" fill="none" xmlns="http://www.w3.org/2000/svg">
<path d="M19.7903 73.8574L25.3764 79.4435L36.1729 68.6435M26.761 67.2765H16.8897C15.5506 67.2765 14.4619 68.3618 14.4619 69.7044V83.9165C14.4619 85.2557 15.5471 86.3444 16.8897 86.3444H31.7697C33.1088 86.3444 34.1975 85.2591 34.1975 83.9165V80.5252M45.6755 39.9235H68.9173M58.4825 49.3391H45.6755M45.6755 72.0974H68.9173M58.4825 81.513H45.6755M19.4739 7.89215V16.7165C19.4739 18.1843 18.2844 19.3774 16.8131 19.3774H7.98871M16.7678 35.0957H31.6547C32.9956 35.0957 34.0825 36.1826 34.0825 37.5235V51.7357C34.0825 53.0765 32.9956 54.1635 31.6547 54.1635H16.7678C15.4269 54.1635 14.3399 53.0765 14.3399 51.7357V37.5235C14.3399 36.1826 15.4269 35.0957 16.7678 35.0957ZM73.4635 102H6.53482C4.08612 102 2.10352 100.014 2.10352 97.5687V18.24C2.10352 17.0643 2.5696 15.9374 3.40091 15.1061L15.1922 3.30087C16.0235 2.46957 17.1505 2 18.3296 2H73.4635C75.9122 2 77.8948 3.98609 77.8948 6.4313V97.5652C77.8948 100.014 75.9087 101.997 73.4635 101.997V102Z" stroke="#ED1C29" stroke-width="3" stroke-miterlimit="10"/>
</svg>
