<svg width="18" height="18" viewBox="0 0 18 18" fill="none" xmlns="http://www.w3.org/2000/svg">
<path fill-rule="evenodd" clip-rule="evenodd" d="M1.40602 9.00001C1.40602 8.77623 1.49491 8.56162 1.65314 8.40339C1.81138 8.24515 2.02599 8.15626 2.24977 8.15626L13.7135 8.15626L10.6535 5.09626C10.5045 4.93631 10.4233 4.72476 10.4272 4.50617C10.4311 4.28758 10.5196 4.07903 10.6742 3.92444C10.8288 3.76985 11.0373 3.6813 11.2559 3.67744C11.4745 3.67358 11.6861 3.75472 11.846 3.90376L16.346 8.40376C16.504 8.56196 16.5928 8.77642 16.5928 9.00001C16.5928 9.2236 16.504 9.43806 16.346 9.59626L11.846 14.0963C11.6861 14.2453 11.4745 14.3264 11.2559 14.3226C11.0373 14.3187 10.8288 14.2302 10.6742 14.0756C10.5196 13.921 10.4311 13.7124 10.4272 13.4938C10.4233 13.2753 10.5045 13.0637 10.6535 12.9038L13.7135 9.84376L2.24977 9.84376C2.02599 9.84376 1.81138 9.75486 1.65314 9.59663C1.49491 9.4384 1.40602 9.22379 1.40602 9.00001Z" fill="white"/>
</svg>
