<svg width="57" height="56" viewBox="0 0 57 56" fill="none" xmlns="http://www.w3.org/2000/svg">
<path d="M37.4659 31.6512V31.6972C37.4659 36.2152 33.7893 39.8773 29.2532 39.8773C24.7172 39.8773 21.0405 36.2152 21.0405 31.6972C21.0405 29.2752 21.7955 26.9131 23.2031 24.9391C25.6027 21.5711 27.5163 17.885 28.8898 13.989L29.2532 12.959L29.701 14.171C31.1106 17.995 33.0122 21.6231 35.3535 24.9631C36.729 26.9251 37.4659 29.2592 37.4659 31.6512Z" stroke="#ED1C29" stroke-width="1.875" stroke-linecap="round" stroke-linejoin="round"/>
<path d="M14.3654 42.3829C6.39772 34.4468 6.39772 21.5806 14.3654 13.6445" stroke="#ED1C29" stroke-width="1.875" stroke-linecap="round" stroke-linejoin="round"/>
<path d="M32.3577 1.2353C24.2794 0.169272 15.8136 2.72535 9.60877 8.90554C-0.981571 19.4538 -0.981571 36.5664 9.60877 47.1127" stroke="#ED1C29" stroke-width="1.875" stroke-linecap="round" stroke-linejoin="round"/>
<path d="M9.61331 47.1152L6.66357 50.0532L19.2416 51.8952L17.3883 39.3711L14.3662 42.3811" stroke="#ED1C29" stroke-width="1.875" stroke-linecap="round" stroke-linejoin="round"/>
<path d="M42.9688 13.6133C50.9365 21.5494 50.9365 34.4155 42.9688 42.3516" stroke="#ED1C29" stroke-width="1.875" stroke-linecap="round" stroke-linejoin="round"/>
<path d="M47.7214 8.88086C47.7214 8.88086 47.7254 8.88487 47.7294 8.88887C58.3158 19.4412 58.3117 36.5417 47.7214 47.088C41.5166 53.2682 33.0548 55.8282 24.9805 54.7662" stroke="#ED1C29" stroke-width="1.875" stroke-linecap="round" stroke-linejoin="round"/>
<path d="M47.5824 9.03587L50.5302 6.09983L37.9541 4.25781L39.8075 16.7819L42.8295 13.7719" stroke="#ED1C29" stroke-width="1.875" stroke-linecap="round" stroke-linejoin="round"/>
</svg>
