<svg width="28" height="29" viewBox="0 0 28 29" fill="none" xmlns="http://www.w3.org/2000/svg">
<path fill-rule="evenodd" clip-rule="evenodd" d="M13.262 4.80824C17.7568 4.32492 21.5579 7.83633 21.5579 12.2342C21.5579 13.5747 21.1996 14.8283 20.5832 15.914C20.5763 15.933 20.5677 15.9515 20.5574 15.9693L15.5587 24.6281C15.5587 24.6281 15.5587 24.6282 15.5586 24.6282C14.9051 25.7609 13.2702 25.7609 12.6167 24.6282C12.6167 24.6282 12.6167 24.6281 12.6167 24.6281L7.61797 15.9693C7.60772 15.9516 7.59912 15.9331 7.59218 15.9142C6.79488 14.5114 6.43089 12.8288 6.71066 11.045L6.71067 11.045C7.22575 7.76285 9.96002 5.16276 13.262 4.80824ZM8.25929 15.6684L13.228 24.2753L13.2281 24.2754C13.6099 24.9373 14.5654 24.9373 14.9473 24.2754L14.9473 24.2753L19.9161 15.6684C19.923 15.6497 19.9315 15.6314 19.9417 15.6139C20.5175 14.6183 20.852 13.4669 20.852 12.2342C20.852 8.2515 17.4104 5.07208 13.3375 5.51005L13.3375 5.51006C10.3523 5.83055 7.8735 8.18816 7.40799 11.1544L7.05933 11.0997L7.40799 11.1544C7.15085 12.7938 7.4923 14.3338 8.23358 15.6137C8.24377 15.6313 8.25235 15.6496 8.25929 15.6684Z" fill="#0895DA"/>
<path d="M7.40799 11.1544C7.8735 8.18816 10.3523 5.83055 13.3375 5.51006L13.3375 5.51005C17.4104 5.07208 20.852 8.2515 20.852 12.2342C20.852 13.4669 20.5175 14.6183 19.9417 15.6139C19.9315 15.6314 19.923 15.6497 19.9161 15.6684L14.9473 24.2753L14.9473 24.2754C14.5654 24.9373 13.6099 24.9373 13.2281 24.2754L13.228 24.2753L8.25929 15.6684C8.25235 15.6496 8.24377 15.6313 8.23358 15.6137C7.4923 14.3338 7.15085 12.7938 7.40799 11.1544ZM7.40799 11.1544L7.05933 11.0997L7.40799 11.1544ZM21.5579 12.2342C21.5579 7.83633 17.7568 4.32492 13.262 4.80824C9.96002 5.16276 7.22575 7.76285 6.71067 11.045L6.71066 11.045C6.43089 12.8288 6.79488 14.5114 7.59218 15.9142C7.59912 15.9331 7.60772 15.9516 7.61797 15.9693L12.6167 24.6281C12.6167 24.6281 12.6167 24.6282 12.6167 24.6282C13.2702 25.7609 14.9051 25.7609 15.5586 24.6282C15.5587 24.6282 15.5587 24.6281 15.5587 24.6281L20.5574 15.9693C20.5677 15.9515 20.5763 15.933 20.5832 15.914C21.1996 14.8283 21.5579 13.5747 21.5579 12.2342Z" stroke="#0895DA" stroke-width="0.5" stroke-miterlimit="10" stroke-linecap="round" stroke-linejoin="round"/>
<path fill-rule="evenodd" clip-rule="evenodd" d="M14.0858 9.11406C12.3629 9.11406 10.9656 10.5113 10.9656 12.2343C10.9656 13.9572 12.3629 15.3545 14.0858 15.3545C15.8088 15.3545 17.206 13.9572 17.206 12.2343C17.206 10.5113 15.8088 9.11406 14.0858 9.11406ZM10.2598 12.2343C10.2598 10.1215 11.973 8.4082 14.0858 8.4082C16.1986 8.4082 17.9119 10.1215 17.9119 12.2343C17.9119 14.347 16.1986 16.0603 14.0858 16.0603C11.973 16.0603 10.2598 14.347 10.2598 12.2343Z" fill="#0895DA" stroke="#0895DA" stroke-width="0.5" stroke-miterlimit="10" stroke-linecap="round" stroke-linejoin="round"/>
</svg>
