<svg width="26" height="26" viewBox="0 0 26 26" fill="none" xmlns="http://www.w3.org/2000/svg">
<path d="M16.31 10.6902C19.1106 13.4938 19.0722 17.9885 16.3268 20.7491C16.3217 20.7547 16.3156 20.7608 16.31 20.7664L13.16 23.9164C10.3817 26.6947 5.86157 26.6943 3.08371 23.9164C0.305429 21.1386 0.305429 16.618 3.08371 13.8402L4.82306 12.1009C5.28431 11.6396 6.07865 11.9462 6.10246 12.598C6.13284 13.4287 6.28181 14.2633 6.55668 15.0693C6.64978 15.3422 6.58326 15.6441 6.37935 15.848L5.7659 16.4614C4.45218 17.7752 4.41098 19.9143 5.71176 21.2408C7.02538 22.5805 9.18454 22.5884 10.5082 21.2647L13.6582 18.1152C14.9797 16.7937 14.9742 14.6578 13.6582 13.3419C13.4848 13.1688 13.31 13.0342 13.1735 12.9403C13.077 12.8739 12.9972 12.786 12.9407 12.6834C12.8842 12.5808 12.8524 12.4664 12.8479 12.3493C12.8293 11.854 13.0048 11.3436 13.3962 10.9522L14.3831 9.96524C14.6419 9.70645 15.0479 9.67467 15.348 9.8841C15.6917 10.1241 16.0136 10.3938 16.31 10.6902ZM22.9163 4.08357C20.1384 1.30567 15.6183 1.30529 12.84 4.08357L9.69004 7.23356C9.68442 7.23918 9.67832 7.24528 9.67317 7.2509C6.92788 10.0115 6.8894 14.5062 9.69004 17.3098C9.98643 17.6062 10.3083 17.8759 10.652 18.1159C10.9521 18.3253 11.3581 18.2935 11.6168 18.0347L12.6037 17.0478C12.9952 16.6564 13.1707 16.1459 13.1521 15.6506C13.1476 15.5336 13.1158 15.4192 13.0593 15.3166C13.0027 15.214 12.923 15.126 12.8264 15.0597C12.6899 14.9657 12.5152 14.8312 12.3417 14.658C11.0258 13.3421 11.0203 11.2062 12.3417 9.88476L15.4917 6.73523C16.8154 5.41153 18.9745 5.4195 20.2882 6.75914C21.589 8.0857 21.5478 10.2248 20.2341 11.5385L19.6206 12.152C19.4167 12.3559 19.3502 12.6577 19.4433 12.9306C19.7182 13.7366 19.8671 14.5712 19.8975 15.4019C19.9214 16.0538 20.7157 16.3603 21.1769 15.8991L22.9162 14.1597C25.6946 11.382 25.6946 6.86137 22.9163 4.08357Z" fill="white"/>
</svg>
