<svg width="108" height="102" viewBox="0 0 108 102" fill="none" xmlns="http://www.w3.org/2000/svg">
<path d="M11.7913 91.3968H11.067C6.19905 91.3968 2.25 87.4477 2.25 82.5797V73.5509C2.25 71.1152 4.22453 69.1407 6.66023 69.1407H13.1611C14.5481 69.1407 15.8531 68.4882 16.6866 67.3779L24.1816 57.3994C25.8487 55.1823 28.4586 53.8774 31.2325 53.8774H49.5191C57.9979 53.8774 66.1898 56.9314 72.5985 62.4792L79.2463 68.232C79.9295 68.823 80.7767 69.1885 81.6751 69.2841L97.8437 70.9649C102.336 71.4329 105.749 75.218 105.749 79.7341V86.9865C105.749 89.4223 103.774 91.3968 101.338 91.3968H98.2092M68.0344 91.3968H41.9556M68.0343 68.191L65.1306 70.6233C64.3585 71.2724 63.3815 71.6277 62.3737 71.6277H31.2528C30.245 71.6277 29.268 71.2724 28.4959 70.6233L25.5922 68.191M41.6067 71.6721V60.9899M9.04187 63.3812V55.2405C9.04187 47.9368 14.962 42.0132 22.2691 42.0132H48.447C52.3892 42.0132 55.5867 38.8157 55.5867 34.8735C55.5867 30.9313 52.3892 27.7338 48.447 27.7338H32.275C29.0878 27.7338 26.5051 25.1512 26.5051 21.9639C26.5051 18.7767 29.0878 16.1941 32.275 16.1941H59.7544M88.5597 9.66922H99.481M88.5597 22.7188H99.481M78.8101 12.4397V19.9586M62.6651 11.2646C61.1859 11.2646 59.9869 12.4636 59.9869 13.9428V18.4555C59.9869 19.9347 61.1859 21.1338 62.6651 21.1338H65.0906L65.3775 21.858C66.7269 25.2605 70.0167 27.498 73.6787 27.498H78.8473H78.8371L80.5998 30.3983H85.9153C87.3774 30.3983 88.5594 29.2129 88.5594 27.7542V4.64409C88.5594 3.18198 87.374 2 85.9153 2H80.5998L78.8371 4.89347H78.8473H73.6821C70.02 4.89347 66.7269 7.13103 65.3809 10.5369L65.094 11.2646H62.6651ZM28.4503 82.8121C33.1896 83.9306 36.1247 88.6794 35.0062 93.4187C33.8876 98.158 29.1388 101.093 24.3995 99.9746C19.6602 98.856 16.7251 94.1073 17.8436 89.368C18.9622 84.6287 23.711 81.6935 28.4503 82.8121ZM85.578 82.8094C90.3173 83.928 93.2525 88.6767 92.1339 93.416C91.0153 98.1553 86.2666 101.091 81.5273 99.9719C76.7879 98.8534 73.8528 94.1046 74.9713 89.3653C76.0899 84.626 80.8387 81.6908 85.578 82.8094Z" stroke="#ED1C29" stroke-width="3" stroke-linecap="round" stroke-linejoin="round"/>
</svg>
