<svg width="48" height="56" viewBox="0 0 48 56" fill="none" xmlns="http://www.w3.org/2000/svg">
<path d="M28.0893 46.3705L19.8975 42.3654L20.8729 38.3938C23.3021 28.5067 30.1658 20.2711 39.4943 16.05L45.1294 13.501L42.2556 16.6701C35.3225 24.3154 30.6048 33.683 28.6032 43.7768L28.0893 46.3705Z" stroke="#ED1C29" stroke-width="1.875" stroke-linecap="round" stroke-linejoin="round"/>
<path d="M19.9 42.3649L19.6824 41.339C18.6451 36.4364 15.5649 32.2004 11.2036 29.6811L13.0757 28.9289C15.5818 27.9197 18.4218 28.1394 20.7404 29.5229" stroke="#ED1C29" stroke-width="1.875" stroke-linecap="round" stroke-linejoin="round"/>
<path d="M44.4459 22.6454C48.3026 30.2814 47.5466 39.7794 41.7428 46.8102C33.8755 56.3566 19.6998 57.7605 10.0824 49.9513C2.07446 43.4456 -0.245955 32.5902 3.74958 23.636C3.78335 23.5541 3.82648 23.4628 3.88088 23.3567C5.01014 21.0813 10.043 13.0748 18.3811 11.6709" stroke="#ED1C29" stroke-width="1.875" stroke-linecap="round" stroke-linejoin="round"/>
<path d="M3.88061 23.3568L3.331 17.9012C2.56941 10.3136 8.71466 3.7911 16.3925 4.04433C19.3582 4.14302 22.3051 3.54719 24.9932 2.30152L27.8069 1L28.3697 6.59711C29.1257 14.1661 23.0198 20.6737 15.3608 20.4577L14.9199 20.4428C13.2035 20.3962 11.4853 20.5787 9.83079 20.9921" stroke="#ED1C29" stroke-width="1.875" stroke-linecap="round" stroke-linejoin="round"/>
</svg>
