<svg width="19" height="23" viewBox="0 0 19 23" fill="none" xmlns="http://www.w3.org/2000/svg">
<path d="M11.5 1.5H3.5C2.96957 1.5 2.46086 1.71071 2.08579 2.08579C1.71071 2.46086 1.5 2.96957 1.5 3.5V19.5C1.5 20.0304 1.71071 20.5391 2.08579 20.9142C2.46086 21.2893 2.96957 21.5 3.5 21.5H15.5C16.0304 21.5 16.5391 21.2893 16.9142 20.9142C17.2893 20.5391 17.5 20.0304 17.5 19.5V7.5M11.5 1.5L17.5 7.5M11.5 1.5V7.5H17.5M13.5 12.5H5.5M13.5 16.5H5.5M7.5 8.5H5.5" stroke="#ED1C29" stroke-width="1.5" stroke-linecap="round" stroke-linejoin="round"/>
</svg>
