<svg width="56" height="56" viewBox="0 0 56 56" fill="none" xmlns="http://www.w3.org/2000/svg">
<path d="M1 55C1 55 1 47.1613 7.96774 43.6774L16.6774 40.1935L13.1935 49.7742C24.5161 48.9032 28 41.9355 28 41.9355M28 41.9355C21.9032 41.9355 21.0323 37.5806 21.0323 37.5806V33.4283M28 41.9355C34.0968 41.9355 34.9677 37.5806 34.9677 37.5806V33.5524M28 41.9355C28 41.9355 30.6129 48.9032 41.9355 49.7742L39.3226 40.1935L48.0323 43.6774C55 47.1613 55 55 55 55M24.5161 29.7419C24.5161 30.7 25.3 31.4839 26.2581 31.4839H30.6129C31.571 31.4839 32.3548 30.7 32.3548 29.7419C32.3548 28.7839 31.571 28 30.6129 28H26.2581C25.3 28 24.5161 28.7839 24.5161 29.7419ZM24.5161 29.7419H19.2903C17.3568 29.7419 15.6693 28.6924 14.7656 27.1312C14.3193 26.3626 14.0645 25.4698 14.0645 24.5161M14.7635 27.129H14.0645C11.4516 27.129 9.70968 25.3653 9.70968 23.2097V20.5968C9.70968 18.4411 11.4516 16.6774 14.0645 16.6774V14.9355C14.0645 7.09677 20.0698 1 28 1C35.9302 1 42.8064 7.09677 42.8064 14.9355V28C42.8064 28 41.9355 38.4516 46.2903 42.8064M22.7742 34.9677C19.2402 32.6292 17.5484 27.3838 17.5484 23.2097V20.1613M39.3226 20.1613V23.2097C39.3226 27.7126 37.352 32.5856 33.2258 34.726M38.4516 14.9355H34.0968V9.70968L29.7419 14.9355H18.4194" stroke="#ED1C29" stroke-width="1.875" stroke-linecap="round" stroke-linejoin="round"/>
</svg>
