<svg width="240" height="34" viewBox="0 0 240 34" fill="none" xmlns="http://www.w3.org/2000/svg">
<path d="M64.2341 8.15884H70.7224V17.7269H85.5709V8.15884H92.0591V32.6354H85.5709V22.715H70.7224V32.6354H64.2341V8.15884ZM129.228 8.15884H135.725V27.6712H147.677V32.6434H129.236V8.15884H129.228ZM181.622 32.6354L170.342 8.15884H162.165L150.909 32.6354H157.757L159.365 28.9443H173.134L174.742 32.6354H181.622ZM161.285 24.5646L166.206 13.2831H166.326L171.238 24.5646H161.285ZM206.023 8.15884V23.868L190.966 8.15884H185.302V32.6354H191.646V16.7901L206.703 32.6354H212.335V8.15884H206.023ZM217.495 8.15884H240V12.9228H223.991V18.0632H237.552V22.4268H223.991V27.8714H240V32.6354H217.495V8.15884ZM103.555 31.7626C101.555 30.8899 100.003 29.5928 98.8993 27.8874C97.7953 26.182 97.2432 24.1002 97.2432 21.6422V8.15884H103.739V21.474C103.739 22.8672 104.003 24.0442 104.539 25.021C105.068 25.9978 105.844 26.7264 106.86 27.2228C107.876 27.7192 109.14 27.9675 110.66 27.9675C112.18 27.9675 113.412 27.7192 114.444 27.2228C115.476 26.7264 116.244 25.9898 116.764 25.021C117.284 24.0522 117.54 22.8672 117.54 21.474V8.15884H124.052V21.6422C124.052 24.1002 123.5 26.174 122.404 27.8794C121.308 29.5848 119.756 30.8739 117.748 31.7546C115.74 32.6354 113.372 33.0757 110.652 33.0757C107.932 33.0757 105.548 32.6354 103.547 31.7626H103.555Z" fill="white"/>
<path d="M35.9932 12.4424H46.8896L46.3535 13.9237H35.4572L34.8652 15.5651H45.7615L45.2255 17.0463H34.3291L33.7291 18.7037H44.6335L44.0975 20.1849H33.1931L32.6171 21.7623H21.7447L17.7846 32.6434H6.91223L10.8724 21.7623H0L0.536018 20.281H11.4084L12.0164 18.6076H1.12804L1.66406 17.1264H12.5524L13.1444 15.485H2.26408L2.80009 14.0037H13.6885L14.2805 12.3624H3.39211L3.92813 10.8811H14.8165L18.7766 0H29.649L25.6889 10.8811H36.5612L35.9932 12.4424ZM40.5214 0L36.5612 10.8811H47.4336L51.3937 0H40.5214ZM28.649 32.6354H39.5213L43.4815 21.7542H32.6091L28.649 32.6354Z" fill="#ED1C29"/>
</svg>
