<svg width="28" height="29" viewBox="0 0 28 29" fill="none" xmlns="http://www.w3.org/2000/svg">
<path d="M22.5469 13.2773C23.6219 13.2775 24.5 14.1564 24.5 15.2314V21.2031C24.5 22.2782 23.6219 23.1571 22.5469 23.1572H20.7246V22.4512H22.5469C23.2321 22.4511 23.7949 21.8884 23.7949 21.2031V15.2314C23.7949 14.5462 23.2321 13.9835 22.5469 13.9834H5.74121C5.05592 13.9834 4.49316 14.5462 4.49316 15.2314V21.2031C4.49316 21.8884 5.05592 22.4512 5.74121 22.4512H7.56348V23.1572H5.74121C4.66611 23.1572 3.78711 22.2782 3.78711 21.2031V15.2314C3.78711 14.1563 4.66611 13.2773 5.74121 13.2773H22.5469Z" fill="#0895DA"/>
<path d="M22.5469 13.2773L22.5469 13.0273H22.5469V13.2773ZM22.5469 23.1572V23.4072H22.5469L22.5469 23.1572ZM20.7246 23.1572H20.4746C20.4746 23.2953 20.5865 23.4072 20.7246 23.4072V23.1572ZM20.7246 22.4512V22.2012C20.5865 22.2012 20.4746 22.3131 20.4746 22.4512H20.7246ZM22.5469 22.4512V22.7012H22.5469L22.5469 22.4512ZM22.5469 13.9834L22.5469 13.7334H22.5469V13.9834ZM7.56348 22.4512H7.81348C7.81348 22.3131 7.70155 22.2012 7.56348 22.2012V22.4512ZM7.56348 23.1572V23.4072C7.70155 23.4072 7.81348 23.2953 7.81348 23.1572H7.56348ZM22.5469 13.2773L22.5469 13.5273C23.4837 13.5274 24.25 14.2943 24.25 15.2314H24.5H24.75C24.75 14.0185 23.7601 13.0275 22.5469 13.0273L22.5469 13.2773ZM24.5 15.2314H24.25V21.2031H24.5H24.75V15.2314H24.5ZM24.5 21.2031H24.25C24.25 22.1402 23.4837 22.9071 22.5469 22.9072L22.5469 23.1572L22.5469 23.4072C23.7601 23.4071 24.75 22.4161 24.75 21.2031H24.5ZM22.5469 23.1572V22.9072H20.7246V23.1572V23.4072H22.5469V23.1572ZM20.7246 23.1572H20.9746V22.4512H20.7246H20.4746V23.1572H20.7246ZM20.7246 22.4512V22.7012H22.5469V22.4512V22.2012H20.7246V22.4512ZM22.5469 22.4512L22.5469 22.7012C23.3701 22.701 24.0449 22.0265 24.0449 21.2031H23.7949H23.5449C23.5449 21.7502 23.094 22.2011 22.5468 22.2012L22.5469 22.4512ZM23.7949 21.2031H24.0449V15.2314H23.7949H23.5449V21.2031H23.7949ZM23.7949 15.2314H24.0449C24.0449 14.4081 23.3701 13.7335 22.5469 13.7334L22.5469 13.9834L22.5468 14.2334C23.094 14.2335 23.5449 14.6843 23.5449 15.2314H23.7949ZM22.5469 13.9834V13.7334H5.74121V13.9834V14.2334H22.5469V13.9834ZM5.74121 13.9834V13.7334C4.91784 13.7334 4.24316 14.4081 4.24316 15.2314H4.49316H4.74316C4.74316 14.6842 5.19399 14.2334 5.74121 14.2334V13.9834ZM4.49316 15.2314H4.24316V21.2031H4.49316H4.74316V15.2314H4.49316ZM4.49316 21.2031H4.24316C4.24316 22.0265 4.91785 22.7012 5.74121 22.7012V22.4512V22.2012C5.19399 22.2012 4.74316 21.7503 4.74316 21.2031H4.49316ZM5.74121 22.4512V22.7012H7.56348V22.4512V22.2012H5.74121V22.4512ZM7.56348 22.4512H7.31348V23.1572H7.56348H7.81348V22.4512H7.56348ZM7.56348 23.1572V22.9072H5.74121V23.1572V23.4072H7.56348V23.1572ZM5.74121 23.1572V22.9072C4.80418 22.9072 4.03711 22.1402 4.03711 21.2031H3.78711H3.53711C3.53711 22.4163 4.52803 23.4072 5.74121 23.4072V23.1572ZM3.78711 21.2031H4.03711V15.2314H3.78711H3.53711V21.2031H3.78711ZM3.78711 15.2314H4.03711C4.03711 14.2944 4.80418 13.5273 5.74121 13.5273V13.2773V13.0273C4.52804 13.0273 3.53711 14.0183 3.53711 15.2314H3.78711ZM5.74121 13.2773V13.5273H22.5469V13.2773V13.0273H5.74121V13.2773Z" fill="#0895DA"/>
<path fill-rule="evenodd" clip-rule="evenodd" d="M7.21094 18.2162C7.21094 18.0213 7.36894 17.8633 7.56384 17.8633H20.7247C20.9196 17.8633 21.0776 18.0213 21.0776 18.2162V25.1255C21.0776 25.3204 20.9196 25.4784 20.7247 25.4784H7.56384C7.36894 25.4784 7.21094 25.3204 7.21094 25.1255V18.2162ZM7.91675 18.5691V24.7726H20.3717V18.5691H7.91675Z" fill="#0895DA" stroke="#0895DA" stroke-width="0.5" stroke-miterlimit="10" stroke-linecap="round" stroke-linejoin="round"/>
<path fill-rule="evenodd" clip-rule="evenodd" d="M9.58008 18.2162C9.58008 18.0213 9.73808 17.8633 9.93298 17.8633H18.3553C18.5502 17.8633 18.7082 18.0213 18.7082 18.2162C18.7082 18.4111 18.5502 18.5691 18.3553 18.5691H9.93298C9.73808 18.5691 9.58008 18.4111 9.58008 18.2162Z" fill="#0895DA" stroke="#0895DA" stroke-width="0.5" stroke-miterlimit="10" stroke-linecap="round" stroke-linejoin="round"/>
<path fill-rule="evenodd" clip-rule="evenodd" d="M9.58008 20.5189C9.58008 20.324 9.73808 20.166 9.93298 20.166H18.3553C18.5502 20.166 18.7082 20.324 18.7082 20.5189C18.7082 20.7138 18.5502 20.8718 18.3553 20.8718H9.93298C9.73808 20.8718 9.58008 20.7138 9.58008 20.5189Z" fill="#0895DA" stroke="#0895DA" stroke-width="0.5" stroke-miterlimit="10" stroke-linecap="round" stroke-linejoin="round"/>
<path fill-rule="evenodd" clip-rule="evenodd" d="M9.58008 22.8236C9.58008 22.6287 9.73808 22.4707 9.93298 22.4707H18.3553C18.5502 22.4707 18.7082 22.6287 18.7082 22.8236C18.7082 23.0185 18.5502 23.1765 18.3553 23.1765H9.93298C9.73808 23.1765 9.58008 23.0185 9.58008 22.8236Z" fill="#0895DA" stroke="#0895DA" stroke-width="0.5" stroke-miterlimit="10" stroke-linecap="round" stroke-linejoin="round"/>
<path fill-rule="evenodd" clip-rule="evenodd" d="M9.58008 25.1263C9.58008 24.9314 9.73808 24.7734 9.93298 24.7734H18.3553C18.5502 24.7734 18.7082 24.9314 18.7082 25.1263C18.7082 25.3212 18.5502 25.4792 18.3553 25.4792H9.93298C9.73808 25.4792 9.58008 25.3212 9.58008 25.1263Z" fill="#0895DA" stroke="#0895DA" stroke-width="0.5" stroke-miterlimit="10" stroke-linecap="round" stroke-linejoin="round"/>
<path fill-rule="evenodd" clip-rule="evenodd" d="M7.21094 5.11853C7.21094 4.92363 7.36894 4.76562 7.56384 4.76562H16.3932C16.487 4.76562 16.5769 4.80296 16.6431 4.86938L20.9746 9.21452C21.0405 9.28067 21.0776 9.37026 21.0776 9.46367V13.6298C21.0776 13.8247 20.9196 13.9827 20.7247 13.9827H7.56384C7.36894 13.9827 7.21094 13.8247 7.21094 13.6298V5.11853ZM7.91675 5.47144V13.2769H20.3717V9.60952L16.2467 5.47144H7.91675Z" fill="#0895DA" stroke="#0895DA" stroke-width="0.5" stroke-miterlimit="10" stroke-linecap="round" stroke-linejoin="round"/>
<path fill-rule="evenodd" clip-rule="evenodd" d="M16.3939 4.76562C16.5888 4.76562 16.7468 4.92363 16.7468 5.11853V8.27676C16.7468 8.73833 17.1199 9.11076 17.5774 9.11076H20.7254C20.9203 9.11076 21.0783 9.26876 21.0783 9.46367C21.0783 9.65857 20.9203 9.81657 20.7254 9.81657H17.5774C16.7283 9.81657 16.041 9.12637 16.041 8.27676V5.11853C16.041 4.92363 16.199 4.76562 16.3939 4.76562Z" fill="#0895DA" stroke="#0895DA" stroke-width="0.5" stroke-miterlimit="10" stroke-linecap="round" stroke-linejoin="round"/>
</svg>
