<svg width="75" height="76" viewBox="0 0 75 76" fill="none" xmlns="http://www.w3.org/2000/svg">
<path d="M28.6977 60.0006L7.86027 45.0189M17.4661 36.4657L33.923 48.6667M17.1364 34.8145L35.0909 17.3274M32.3519 4.64948L3.12103 32.3987M51.2374 23.2215L43.8777 15.7018M62.1361 26.1589C63.5226 25.8998 64.9491 25.9495 66.3142 26.3044C67.6796 26.6593 68.9496 27.3107 70.0347 28.2122C71.1194 29.1138 71.9923 30.2433 72.591 31.5205C73.1897 32.7977 73.4995 34.1912 73.4985 35.6017M63.8964 45.2013C62.4859 45.2019 61.093 44.8915 59.8162 44.2925C58.5392 43.6938 57.4103 42.8209 56.5089 41.7358C55.6078 40.6511 54.9566 39.3811 54.6021 38.0163C54.2472 36.6513 54.1976 35.2248 54.4568 33.8386M2.29879 74H72.6957M28.6976 74V57.1975C28.6976 54.6517 29.709 52.2099 31.5093 50.4097C33.3096 48.6095 35.7514 47.598 38.2972 47.598C40.843 47.598 43.2848 48.6095 45.0851 50.4097C46.8853 52.2099 47.8968 54.6517 47.8968 57.1975V73.9968M1.50195 37.2016C1.50195 39.3231 2.34477 41.3579 3.84499 42.8583C5.34522 44.3584 7.37997 45.2013 9.50161 45.2013C11.6232 45.2013 13.658 44.3584 15.1582 42.8583C16.6584 41.3579 17.5013 39.3231 17.5013 37.2016C17.5013 35.0801 16.6584 33.0453 15.1582 31.5451C13.658 30.0448 11.6232 29.202 9.50161 29.202C7.37997 29.202 5.34522 30.0448 3.84499 31.5451C2.34477 33.0453 1.50195 35.0801 1.50195 37.2016ZM30.2944 9.99964C30.2944 12.1213 31.1372 14.156 32.6376 15.6563C34.1377 17.1565 36.1725 17.9993 38.294 17.9993C40.4158 17.9993 42.4503 17.1565 43.9507 15.6563C45.4508 14.156 46.2936 12.1213 46.2936 9.99964C46.2936 7.87801 45.4508 5.84325 43.9507 4.34303C42.4503 2.84281 40.4158 2 38.294 2C36.1725 2 34.1377 2.84281 32.6376 4.34303C31.1372 5.84325 30.2944 7.87801 30.2944 9.99964ZM49.4967 27.6021C49.4967 29.2994 50.1709 30.9272 51.3712 32.1273C52.5714 33.3276 54.1992 34.0018 55.8964 34.0018C57.5936 34.0018 59.2214 33.3276 60.4217 32.1273C61.6219 30.9272 62.2961 29.2994 62.2961 27.6021C62.2961 25.9048 61.6219 24.277 60.4217 23.0768C59.2214 21.8766 57.5936 21.2024 55.8964 21.2024C54.1992 21.2024 52.5714 21.8766 51.3712 23.0768C50.1709 24.277 49.4967 25.9048 49.4967 27.6021Z" stroke="#ED1C29" stroke-width="3" stroke-linecap="round" stroke-linejoin="round"/>
</svg>
