<svg width="82" height="76" viewBox="0 0 82 76" fill="none" xmlns="http://www.w3.org/2000/svg">
<path d="M17.8573 25.1429C17.8573 31.2807 20.2955 37.1672 24.6357 41.5074C28.9758 45.8473 34.8623 48.2857 41.0001 48.2857C47.138 48.2857 53.0245 45.8473 57.3647 41.5074C61.7046 37.1672 64.143 31.2807 64.143 25.1429C64.143 19.005 61.7046 13.1185 57.3647 8.77839C53.0245 4.43826 47.138 2 41.0001 2C34.8623 2 28.9758 4.43826 24.6357 8.77839C20.2955 13.1185 17.8573 19.005 17.8573 25.1429Z" stroke="#ED1C29" stroke-width="3" stroke-linecap="round" stroke-linejoin="round"/>
<path d="M2.42871 50.8571C2.42871 56.995 4.86697 62.8815 9.2071 67.2217C13.5472 71.5616 19.4337 74 25.5716 74C31.7094 74 37.5959 71.5616 41.9361 67.2217C46.276 62.8815 48.7144 56.995 48.7144 50.8571C48.7144 44.7193 46.276 38.8328 41.9361 34.4926C37.5959 30.1525 31.7094 27.7143 25.5716 27.7143C19.4337 27.7143 13.5472 30.1525 9.2071 34.4926C4.86697 38.8328 2.42871 44.7193 2.42871 50.8571Z" stroke="#ED1C29" stroke-width="3" stroke-linecap="round" stroke-linejoin="round"/>
<path d="M33.2859 50.8571C33.2859 53.8962 33.8844 56.9058 35.0475 59.7135C36.2104 62.5215 37.9151 65.0727 40.0641 67.2217C42.2132 69.3707 44.7644 71.0754 47.5724 72.2384C50.38 73.4014 53.3896 74 56.4287 74C59.4678 74 62.4774 73.4014 65.2851 72.2384C68.0931 71.0754 70.6443 69.3707 72.7933 67.2217C74.9423 65.0727 76.647 62.5215 77.81 59.7135C78.9729 56.9058 79.5716 53.8962 79.5716 50.8571C79.5716 47.8181 78.9729 44.8085 77.81 42.0008C76.647 39.1928 74.9423 36.6416 72.7933 34.4926C70.6443 32.3435 68.0931 30.639 65.2851 29.4759C62.4774 28.3129 59.4678 27.7143 56.4287 27.7143C53.3896 27.7143 50.38 28.3129 47.5724 29.4759C44.7644 30.639 42.2132 32.3435 40.0641 34.4926C37.9151 36.6416 36.2104 39.1928 35.0475 42.0008C33.8844 44.8085 33.2859 47.8181 33.2859 50.8571Z" stroke="#ED1C29" stroke-width="3" stroke-linecap="round" stroke-linejoin="round"/>
</svg>
