<svg width="56" height="56" viewBox="0 0 56 56" fill="none" xmlns="http://www.w3.org/2000/svg">
<path d="M39.3226 41.9355L40.5942 44.4874C40.8381 44.9752 41.4652 45.1232 41.8919 44.7923L44.1913 43.0677C44.409 42.9023 44.5397 42.641 44.5397 42.371V40.4548C44.5397 40.2806 44.5919 40.1152 44.6877 39.9758L49.6174 32.5726C49.7132 32.4332 49.7655 32.259 49.7655 32.0935V28M31.4839 20.1613L28.9929 23.1574C28.7839 23.4013 28.7316 23.7497 28.8535 24.0458L31.7016 30.9439C31.8323 31.2661 32.1545 31.4839 32.5029 31.4839H34.4277C34.7587 31.4839 35.0635 31.6668 35.2029 31.9629L35.83 33.2258M21.9032 42.8065L21.4503 46.8652C21.3806 47.5097 20.6403 47.8581 20.1003 47.4923L14.7352 43.9126C14.6132 43.8255 14.5087 43.7123 14.439 43.5816L12.3574 39.4184C12.3139 39.3313 12.2616 39.2616 12.1919 39.1919L7.35806 34.3581C7.19258 34.1926 7.10548 33.9748 7.10548 33.7397M22.391 8.55129L20.8755 9.56161C20.4748 9.8229 20.3703 10.3629 20.6316 10.7635L22.0164 12.9061C22.3648 13.4461 22.0339 14.1603 21.3981 14.2474L16.3465 14.8745C16.0155 14.9181 15.7368 15.1445 15.6323 15.4581L14.23 19.5777C14.1081 19.9348 13.7771 20.17 13.4026 20.17H9.27419C9.03903 20.17 8.82129 20.2658 8.65581 20.4226L7.19258 21.8858C6.88774 22.1906 6.8529 22.6784 7.11419 23.0268L9.84032 26.6674C9.96226 26.8329 10.1452 26.9461 10.3455 26.9984L14.6916 27.9913C14.8745 28.0348 15.0313 28.1306 15.1532 28.27L17.7052 31.2052C17.8358 31.3532 18.0013 31.449 18.1929 31.4839L22.06 32.2329C22.4694 32.3113 22.7655 32.6684 22.7655 33.0865V34.1142M54.3119 21.9032C54.7648 23.8629 55 25.901 55 28C55 42.911 42.911 55 28 55C13.089 55 1 42.911 1 28C1 13.089 13.089 1 28 1C29.1845 1 30.3429 1.07839 31.4839 1.22645M24.5161 38.4516H32.3548C37.1277 38.4516 40.0629 36.6226 41.7526 34.9677M48.0323 11.4516C48.0323 13.8567 46.0825 15.8065 43.6774 15.8065C41.2723 15.8065 39.3226 13.8567 39.3226 11.4516C39.3226 9.0465 41.2723 7.09677 43.6774 7.09677C46.0825 7.09677 48.0323 9.0465 48.0323 11.4516ZM54.129 11.4516C54.129 17.5484 43.6774 28 43.6774 28C43.6774 28 33.2258 17.5484 33.2258 11.4516C33.2258 5.6771 37.9029 1 43.6774 1C49.4519 1 54.129 5.6771 54.129 11.4516Z" stroke="#ED1C29" stroke-width="1.875" stroke-linecap="round" stroke-linejoin="round"/>
</svg>
