<svg width="83" height="81" viewBox="0 0 83 81" fill="none" xmlns="http://www.w3.org/2000/svg">
<rect x="0.957031" y="10.957" width="70" height="70" rx="11.413" fill="url(#paint0_linear_2596_3665)"/>
<g filter="url(#filter0_diiii_2596_3665)">
<path d="M35.6989 52.0299C34.2488 52.0299 33.0001 51.8285 31.9528 51.4257C30.9256 51.0027 30.0696 50.4287 29.3849 49.7037C28.7202 48.9585 28.2167 48.1025 27.8743 47.1358C27.5521 46.1489 27.3608 45.1016 27.3003 43.9939C27.2802 43.4501 27.2601 42.8459 27.2399 42.1812C27.2399 41.4965 27.2399 40.8117 27.2399 40.1269C27.2601 39.4422 27.2802 38.8178 27.3003 38.2539C27.3406 37.1462 27.532 36.1089 27.8743 35.1422C28.2369 34.1755 28.7605 33.3296 29.4453 32.6045C30.1301 31.8795 30.986 31.3155 32.0132 30.9127C33.0605 30.4898 34.289 30.2783 35.6989 30.2783C37.1087 30.2783 38.3272 30.4898 39.3543 30.9127C40.3815 31.3155 41.2375 31.8795 41.9222 32.6045C42.607 33.3296 43.1206 34.1755 43.463 35.1422C43.8255 36.1089 44.037 37.1462 44.0974 38.2539C44.1175 38.8178 44.1276 39.4422 44.1276 40.1269C44.1477 40.8117 44.1477 41.4965 44.1276 42.1812C44.1276 42.8459 44.1175 43.4501 44.0974 43.9939C44.037 45.1016 43.8356 46.1489 43.4932 47.1358C43.1508 48.1025 42.6372 48.9585 41.9524 49.7037C41.2878 50.4287 40.4318 51.0027 39.3845 51.4257C38.3574 51.8285 37.1288 52.0299 35.6989 52.0299ZM35.6989 48.1025C36.867 48.1025 37.723 47.7198 38.2668 46.9545C38.8105 46.1892 39.1026 45.1519 39.1429 43.8428C39.163 43.2588 39.1731 42.6545 39.1731 42.0302C39.1932 41.4058 39.1932 40.7815 39.1731 40.1571C39.1731 39.5328 39.163 38.9487 39.1429 38.4049C39.1026 37.1562 38.8105 36.1392 38.2668 35.3537C37.723 34.5682 36.867 34.1654 35.6989 34.1453C34.5106 34.1654 33.6445 34.5682 33.1008 35.3537C32.5771 36.1392 32.2951 37.1562 32.2549 38.4049C32.2347 38.9487 32.2146 39.5328 32.1944 40.1571C32.1944 40.7815 32.1944 41.4058 32.1944 42.0302C32.2146 42.6545 32.2347 43.2588 32.2549 43.8428C32.2951 45.1519 32.5872 46.1892 33.131 46.9545C33.6748 47.7198 34.5307 48.1025 35.6989 48.1025Z" fill="white"/>
<path d="M54.368 52.0299C52.9179 52.0299 51.6692 51.8285 50.6219 51.4257C49.5947 51.0027 48.7388 50.4287 48.054 49.7037C47.3894 48.9585 46.8859 48.1025 46.5435 47.1358C46.2212 46.1489 46.0299 45.1016 45.9695 43.9939C45.9493 43.4501 45.9292 42.8459 45.9091 42.1812C45.9091 41.4965 45.9091 40.8117 45.9091 40.1269C45.9292 39.4422 45.9493 38.8178 45.9695 38.2539C46.0098 37.1462 46.2011 36.1089 46.5435 35.1422C46.906 34.1755 47.4297 33.3296 48.1144 32.6045C48.7992 31.8795 49.6552 31.3155 50.6823 30.9127C51.7296 30.4898 52.9582 30.2783 54.368 30.2783C55.7778 30.2783 56.9963 30.4898 58.0235 30.9127C59.0506 31.3155 59.9066 31.8795 60.5913 32.6045C61.2761 33.3296 61.7897 34.1755 62.1321 35.1422C62.4946 36.1089 62.7061 37.1462 62.7665 38.2539C62.7866 38.8178 62.7967 39.4422 62.7967 40.1269C62.8169 40.8117 62.8169 41.4965 62.7967 42.1812C62.7967 42.8459 62.7866 43.4501 62.7665 43.9939C62.7061 45.1016 62.5047 46.1489 62.1623 47.1358C61.8199 48.1025 61.3063 48.9585 60.6216 49.7037C59.9569 50.4287 59.101 51.0027 58.0537 51.4257C57.0265 51.8285 55.798 52.0299 54.368 52.0299ZM54.368 48.1025C55.5361 48.1025 56.3921 47.7198 56.9359 46.9545C57.4797 46.1892 57.7717 45.1519 57.812 43.8428C57.8321 43.2588 57.8422 42.6545 57.8422 42.0302C57.8623 41.4058 57.8623 40.7815 57.8422 40.1571C57.8422 39.5328 57.8321 38.9487 57.812 38.4049C57.7717 37.1562 57.4797 36.1392 56.9359 35.3537C56.3921 34.5682 55.5361 34.1654 54.368 34.1453C53.1797 34.1654 52.3137 34.5682 51.7699 35.3537C51.2462 36.1392 50.9643 37.1562 50.924 38.4049C50.9039 38.9487 50.8837 39.5328 50.8636 40.1571C50.8636 40.7815 50.8636 41.4058 50.8636 42.0302C50.8837 42.6545 50.9039 43.2588 50.924 43.8428C50.9643 45.1519 51.2563 46.1892 51.8001 46.9545C52.3439 47.7198 53.1999 48.1025 54.368 48.1025Z" fill="white"/>
<path d="M24.1927 70.6093C24.0669 70.6093 23.9536 70.5653 23.8529 70.4771C23.7648 70.389 23.7207 70.2757 23.7207 70.1373V57.8643C23.7207 57.7258 23.7648 57.6125 23.8529 57.5244C23.9536 57.4363 24.0669 57.3922 24.1927 57.3922H25.9487C26.1375 57.3922 26.276 57.4426 26.3641 57.5433C26.4648 57.644 26.5341 57.7195 26.5718 57.7699L30.046 64.1707L33.558 57.7699C33.5832 57.7195 33.6398 57.644 33.7279 57.5433C33.8286 57.4426 33.9734 57.3922 34.1622 57.3922H35.9182C36.0566 57.3922 36.1699 57.4363 36.2581 57.5244C36.3462 57.6125 36.3902 57.7258 36.3902 57.8643V70.1373C36.3902 70.2757 36.3462 70.389 36.2581 70.4771C36.1699 70.5653 36.0566 70.6093 35.9182 70.6093H33.9923C33.8664 70.6093 33.7594 70.5653 33.6713 70.4771C33.5832 70.389 33.5391 70.2757 33.5391 70.1373V62.5091L31.1412 67.0029C31.0782 67.1162 30.9964 67.2169 30.8957 67.305C30.795 67.3932 30.6628 67.4372 30.4992 67.4372H29.6117C29.4481 67.4372 29.3159 67.3932 29.2152 67.305C29.1145 67.2169 29.0327 67.1162 28.9698 67.0029L26.5718 62.5091V70.1373C26.5718 70.2757 26.5278 70.389 26.4396 70.4771C26.3515 70.5653 26.2445 70.6093 26.1187 70.6093H24.1927Z" fill="white"/>
<path d="M43.7415 70.7981C43.024 70.7981 42.4261 70.6785 41.9477 70.4394C41.4694 70.1876 41.0792 69.8729 40.7771 69.4953V70.1373C40.7771 70.2757 40.733 70.389 40.6449 70.4771C40.5568 70.5653 40.4435 70.6093 40.305 70.6093H38.5113C38.3728 70.6093 38.2595 70.5653 38.1714 70.4771C38.0833 70.389 38.0393 70.2757 38.0393 70.1373V57.6754C38.0393 57.537 38.0833 57.4237 38.1714 57.3356C38.2595 57.2475 38.3728 57.2034 38.5113 57.2034H40.4561C40.582 57.2034 40.689 57.2475 40.7771 57.3356C40.8652 57.4237 40.9093 57.537 40.9093 57.6754V61.7916C41.224 61.4392 41.6142 61.1559 42.0799 60.942C42.5457 60.7154 43.0995 60.6021 43.7415 60.6021C44.396 60.6021 44.9625 60.7154 45.4408 60.942C45.9317 61.1559 46.3471 61.4643 46.687 61.8671C47.0269 62.2574 47.2849 62.7231 47.4612 63.2644C47.65 63.8057 47.7507 64.4036 47.7633 65.0581C47.7758 65.2847 47.7821 65.4987 47.7821 65.7001C47.7821 65.8889 47.7758 66.1029 47.7633 66.3421C47.7381 67.0092 47.6311 67.6197 47.4423 68.1736C47.266 68.7149 47.008 69.1869 46.6681 69.5897C46.3408 69.9799 45.9317 70.282 45.4408 70.496C44.9625 70.6974 44.396 70.7981 43.7415 70.7981ZM42.8918 68.5323C43.3702 68.5323 43.7478 68.4316 44.0247 68.2302C44.3016 68.0162 44.4967 67.7393 44.61 67.3994C44.7359 67.0596 44.8114 66.6882 44.8366 66.2854C44.8618 65.8952 44.8618 65.505 44.8366 65.1148C44.8114 64.712 44.7359 64.3406 44.61 64.0008C44.4967 63.6609 44.3016 63.3903 44.0247 63.1889C43.7478 62.9749 43.3702 62.8679 42.8918 62.8679C42.4387 62.8679 42.0673 62.9686 41.7778 63.17C41.5009 63.3714 41.2869 63.6294 41.1358 63.9441C40.9974 64.2462 40.9218 64.5735 40.9093 64.926C40.8967 65.1525 40.8904 65.3854 40.8904 65.6246C40.8904 65.8637 40.8967 66.1029 40.9093 66.3421C40.9344 66.7197 41.01 67.0722 41.1358 67.3994C41.2617 67.7267 41.4694 67.9974 41.7589 68.2113C42.0484 68.4253 42.4261 68.5323 42.8918 68.5323Z" fill="white"/>
</g>
<g filter="url(#filter1_diiii_2596_3665)">
<path d="M17.4753 51.8631C15.5974 51.8631 14.0292 51.5692 12.7706 50.9815C11.512 50.3736 10.5531 49.5934 9.89385 48.6409C9.25457 47.6681 8.91495 46.6245 8.875 45.5099C8.875 45.3275 8.93493 45.1755 9.0548 45.0539C9.17466 44.9323 9.32449 44.8715 9.50429 44.8715H13.5198C13.7795 44.8715 13.9792 44.9323 14.1191 45.0539C14.2789 45.1552 14.3988 45.2869 14.4787 45.4491C14.6585 45.9152 14.8882 46.3002 15.1679 46.6042C15.4676 46.9082 15.8072 47.1311 16.1867 47.273C16.5863 47.4148 17.0258 47.4857 17.5052 47.4857C18.0646 47.4857 18.584 47.3642 19.0635 47.121C19.5429 46.8778 19.9225 46.5231 20.2022 46.057C20.5019 45.5707 20.6517 44.9931 20.6517 44.3243C20.6517 43.7164 20.5119 43.1895 20.2322 42.7436C19.9725 42.2978 19.6029 41.9432 19.1234 41.6797C18.644 41.4163 18.1046 41.2845 17.5052 41.2845C17.0258 41.2845 16.6362 41.3453 16.3366 41.4669C16.0369 41.5682 15.7872 41.7 15.5874 41.8621C15.3876 42.0242 15.2078 42.1661 15.048 42.2877C14.8882 42.389 14.7084 42.4397 14.5086 42.4397H10.5831C10.4033 42.4397 10.2435 42.3789 10.1036 42.2573C9.98375 42.1154 9.92381 41.9533 9.92381 41.7709L11.0026 31.1619C11.0426 30.858 11.1524 30.635 11.3322 30.4932C11.512 30.3311 11.7318 30.25 11.9915 30.25H24.0079C24.2277 30.25 24.4074 30.3209 24.5473 30.4628C24.6871 30.6046 24.7571 30.787 24.7571 31.01V33.8674C24.7571 34.0903 24.6871 34.2727 24.5473 34.4145C24.4074 34.5564 24.2277 34.6273 24.0079 34.6273H15.3177L14.9282 38.5791C15.3677 38.2751 15.8771 38.0319 16.4564 37.8495C17.0558 37.6469 17.8648 37.5456 18.8837 37.5456C19.8426 37.5456 20.7516 37.7077 21.6106 38.0319C22.4896 38.3562 23.2687 38.8223 23.948 39.4302C24.6472 40.0382 25.1866 40.7678 25.5661 41.6189C25.9657 42.4498 26.1655 43.3921 26.1655 44.4459C26.1655 45.8848 25.8159 47.1615 25.1166 48.2761C24.4374 49.3907 23.4485 50.2722 22.15 50.9207C20.8515 51.549 19.2932 51.8631 17.4753 51.8631Z" fill="white"/>
</g>
<g clip-path="url(#clip0_2596_3665)">
<path d="M62.146 1.52158C62.5375 0.951722 63.3789 0.951722 63.7704 1.52158L65.5976 4.18097C66.1398 4.9702 67.1871 5.22834 68.034 4.78151L70.8878 3.27585C71.4993 2.95322 72.2442 3.3442 72.3261 4.03074L72.7081 7.23464C72.8214 8.18546 73.6288 8.90073 74.5864 8.89866L77.8129 8.89167C78.5043 8.89017 78.9823 9.58257 78.7357 10.2285L77.585 13.2429C77.2435 14.1375 77.626 15.1461 78.4748 15.5892L81.3351 17.0825C81.948 17.4025 82.0494 18.2377 81.5309 18.6951L79.1111 20.8294C78.393 21.4629 78.263 22.5337 78.8086 23.3205L80.6473 25.972C81.0413 26.5401 80.7429 27.3268 80.0713 27.4908L76.9368 28.2562C76.0066 28.4833 75.3938 29.371 75.5113 30.3214L75.9072 33.5236C75.992 34.2098 75.3622 34.7677 74.6913 34.6007L71.5601 33.8218C70.6309 33.5906 69.6758 34.0919 69.3382 34.988L68.2006 38.0073C67.9568 38.6543 67.1399 38.8557 66.6234 38.3961L64.2129 36.2512C63.4975 35.6147 62.4189 35.6147 61.7035 36.2512L59.293 38.3961C58.7765 38.8557 57.9596 38.6543 57.7158 38.0073L56.5782 34.988C56.2406 34.0919 55.2855 33.5906 54.3563 33.8218L51.2251 34.6007C50.5542 34.7677 49.9244 34.2098 50.0093 33.5236L50.4051 30.3214C50.5226 29.371 49.9099 28.4833 48.9796 28.2562L45.8451 27.4908C45.1735 27.3268 44.8751 26.5401 45.2691 25.972L47.1078 23.3205C47.6534 22.5337 47.5234 21.4629 46.8053 20.8295L44.3855 18.6951C43.867 18.2377 43.9684 17.4025 44.5813 17.0825L47.4416 15.5892C48.2904 15.1461 48.6729 14.1375 48.3314 13.2429L47.1807 10.2285C46.9342 9.58257 47.4121 8.89017 48.1035 8.89167L51.3301 8.89866C52.2876 8.90073 53.095 8.18545 53.2084 7.23464L53.5903 4.03074C53.6722 3.3442 54.4172 2.95322 55.0287 3.27585L57.8824 4.78151C58.7293 5.22834 59.7766 4.9702 60.3189 4.18097L62.146 1.52158Z" fill="#148E87" stroke="#167772" stroke-width="0.902068"/>
<path d="M52.4793 19.7409H55.697V20.9858H52.4793V19.7409ZM52.5942 23.4277H51.0429V16.7243H56.1087V17.9692H52.5942V23.4277ZM57.159 23.4277V16.7243H60.0606C60.6607 16.7243 61.1779 16.8233 61.612 17.0212C62.0461 17.2127 62.3813 17.4904 62.6175 17.8543C62.8537 18.2182 62.9718 18.6523 62.9718 19.1567C62.9718 19.6547 62.8537 20.0856 62.6175 20.4495C62.3813 20.807 62.0461 21.0815 61.612 21.2731C61.1779 21.4646 60.6607 21.5604 60.0606 21.5604H58.0209L58.7104 20.8804V23.4277H57.159ZM61.4205 23.4277L59.7446 20.9954H61.4013L63.0963 23.4277H61.4205ZM58.7104 21.0528L58.0209 20.325H59.9744C60.4533 20.325 60.8108 20.2229 61.047 20.0186C61.2832 19.8079 61.4013 19.5206 61.4013 19.1567C61.4013 18.7864 61.2832 18.4991 61.047 18.2948C60.8108 18.0905 60.4533 17.9884 59.9744 17.9884H58.0209L58.7104 17.251V21.0528ZM65.6278 19.4248H68.855V20.6315H65.6278V19.4248ZM65.7427 22.1828H69.3913V23.4277H64.201V16.7243H69.2668V17.9692H65.7427V22.1828ZM72.0526 19.4248H75.2798V20.6315H72.0526V19.4248ZM72.1675 22.1828H75.816V23.4277H70.6257V16.7243H75.6916V17.9692H72.1675V22.1828Z" fill="white"/>
</g>
<defs>
<filter id="filter0_diiii_2596_3665" x="23.1543" y="29.9007" width="40.224" height="41.9359" filterUnits="userSpaceOnUse" color-interpolation-filters="sRGB">
<feFlood flood-opacity="0" result="BackgroundImageFix"/>
<feColorMatrix in="SourceAlpha" type="matrix" values="0 0 0 0 0 0 0 0 0 0 0 0 0 0 0 0 0 0 127 0" result="hardAlpha"/>
<feOffset dy="0.472039"/>
<feGaussianBlur stdDeviation="0.283223"/>
<feComposite in2="hardAlpha" operator="out"/>
<feColorMatrix type="matrix" values="0 0 0 0 0 0 0 0 0 0 0 0 0 0 0 0 0 0 0.46 0"/>
<feBlend mode="normal" in2="BackgroundImageFix" result="effect1_dropShadow_2596_3665"/>
<feBlend mode="normal" in="SourceGraphic" in2="effect1_dropShadow_2596_3665" result="shape"/>
<feColorMatrix in="SourceAlpha" type="matrix" values="0 0 0 0 0 0 0 0 0 0 0 0 0 0 0 0 0 0 127 0" result="hardAlpha"/>
<feOffset dx="-0.377631" dy="0.188815"/>
<feGaussianBlur stdDeviation="0.188815"/>
<feComposite in2="hardAlpha" operator="arithmetic" k2="-1" k3="1"/>
<feColorMatrix type="matrix" values="0 0 0 0 0.645772 0 0 0 0 0.645772 0 0 0 0 0.645772 0 0 0 1 0"/>
<feBlend mode="normal" in2="shape" result="effect2_innerShadow_2596_3665"/>
<feColorMatrix in="SourceAlpha" type="matrix" values="0 0 0 0 0 0 0 0 0 0 0 0 0 0 0 0 0 0 127 0" result="hardAlpha"/>
<feOffset dx="0.377631" dy="-0.377631"/>
<feGaussianBlur stdDeviation="0.377631"/>
<feComposite in2="hardAlpha" operator="arithmetic" k2="-1" k3="1"/>
<feColorMatrix type="matrix" values="0 0 0 0 0.838246 0 0 0 0 0.838246 0 0 0 0 0.838246 0 0 0 1 0"/>
<feBlend mode="normal" in2="effect2_innerShadow_2596_3665" result="effect3_innerShadow_2596_3665"/>
<feColorMatrix in="SourceAlpha" type="matrix" values="0 0 0 0 0 0 0 0 0 0 0 0 0 0 0 0 0 0 127 0" result="hardAlpha"/>
<feOffset dy="0.283223"/>
<feGaussianBlur stdDeviation="0.0472039"/>
<feComposite in2="hardAlpha" operator="arithmetic" k2="-1" k3="1"/>
<feColorMatrix type="matrix" values="0 0 0 0 0 0 0 0 0 0 0 0 0 0 0 0 0 0 0.79 0"/>
<feBlend mode="normal" in2="effect3_innerShadow_2596_3665" result="effect4_innerShadow_2596_3665"/>
<feColorMatrix in="SourceAlpha" type="matrix" values="0 0 0 0 0 0 0 0 0 0 0 0 0 0 0 0 0 0 127 0" result="hardAlpha"/>
<feOffset dx="-0.188815" dy="0.0944077"/>
<feGaussianBlur stdDeviation="0.0944077"/>
<feComposite in2="hardAlpha" operator="arithmetic" k2="-1" k3="1"/>
<feColorMatrix type="matrix" values="0 0 0 0 1 0 0 0 0 1 0 0 0 0 1 0 0 0 1 0"/>
<feBlend mode="normal" in2="effect4_innerShadow_2596_3665" result="effect5_innerShadow_2596_3665"/>
</filter>
<filter id="filter1_diiii_2596_3665" x="8.30855" y="29.8724" width="18.4234" height="23.0292" filterUnits="userSpaceOnUse" color-interpolation-filters="sRGB">
<feFlood flood-opacity="0" result="BackgroundImageFix"/>
<feColorMatrix in="SourceAlpha" type="matrix" values="0 0 0 0 0 0 0 0 0 0 0 0 0 0 0 0 0 0 127 0" result="hardAlpha"/>
<feOffset dy="0.472039"/>
<feGaussianBlur stdDeviation="0.283223"/>
<feComposite in2="hardAlpha" operator="out"/>
<feColorMatrix type="matrix" values="0 0 0 0 0 0 0 0 0 0 0 0 0 0 0 0 0 0 0.46 0"/>
<feBlend mode="normal" in2="BackgroundImageFix" result="effect1_dropShadow_2596_3665"/>
<feBlend mode="normal" in="SourceGraphic" in2="effect1_dropShadow_2596_3665" result="shape"/>
<feColorMatrix in="SourceAlpha" type="matrix" values="0 0 0 0 0 0 0 0 0 0 0 0 0 0 0 0 0 0 127 0" result="hardAlpha"/>
<feOffset dx="-0.377631" dy="0.188815"/>
<feGaussianBlur stdDeviation="0.188815"/>
<feComposite in2="hardAlpha" operator="arithmetic" k2="-1" k3="1"/>
<feColorMatrix type="matrix" values="0 0 0 0 0.645772 0 0 0 0 0.645772 0 0 0 0 0.645772 0 0 0 1 0"/>
<feBlend mode="normal" in2="shape" result="effect2_innerShadow_2596_3665"/>
<feColorMatrix in="SourceAlpha" type="matrix" values="0 0 0 0 0 0 0 0 0 0 0 0 0 0 0 0 0 0 127 0" result="hardAlpha"/>
<feOffset dx="0.377631" dy="-0.377631"/>
<feGaussianBlur stdDeviation="0.377631"/>
<feComposite in2="hardAlpha" operator="arithmetic" k2="-1" k3="1"/>
<feColorMatrix type="matrix" values="0 0 0 0 0.838246 0 0 0 0 0.838246 0 0 0 0 0.838246 0 0 0 1 0"/>
<feBlend mode="normal" in2="effect2_innerShadow_2596_3665" result="effect3_innerShadow_2596_3665"/>
<feColorMatrix in="SourceAlpha" type="matrix" values="0 0 0 0 0 0 0 0 0 0 0 0 0 0 0 0 0 0 127 0" result="hardAlpha"/>
<feOffset dy="0.283223"/>
<feGaussianBlur stdDeviation="0.0472039"/>
<feComposite in2="hardAlpha" operator="arithmetic" k2="-1" k3="1"/>
<feColorMatrix type="matrix" values="0 0 0 0 0 0 0 0 0 0 0 0 0 0 0 0 0 0 0.79 0"/>
<feBlend mode="normal" in2="effect3_innerShadow_2596_3665" result="effect4_innerShadow_2596_3665"/>
<feColorMatrix in="SourceAlpha" type="matrix" values="0 0 0 0 0 0 0 0 0 0 0 0 0 0 0 0 0 0 127 0" result="hardAlpha"/>
<feOffset dx="-0.188815" dy="0.0944077"/>
<feGaussianBlur stdDeviation="0.0944077"/>
<feComposite in2="hardAlpha" operator="arithmetic" k2="-1" k3="1"/>
<feColorMatrix type="matrix" values="0 0 0 0 1 0 0 0 0 1 0 0 0 0 1 0 0 0 1 0"/>
<feBlend mode="normal" in2="effect4_innerShadow_2596_3665" result="effect5_innerShadow_2596_3665"/>
</filter>
<linearGradient id="paint0_linear_2596_3665" x1="23.007" y1="29.1577" x2="73.407" y2="77.1077" gradientUnits="userSpaceOnUse">
<stop stop-color="#7FB4E9"/>
<stop offset="1" stop-color="#3346A9"/>
</linearGradient>
<clipPath id="clip0_2596_3665">
<rect width="38.7889" height="39.691" fill="white" transform="translate(43.543 0.5)"/>
</clipPath>
</defs>
</svg>
