<svg width="76" height="76" viewBox="0 0 76 76" fill="none" xmlns="http://www.w3.org/2000/svg">
<path d="M72.5942 3.40589C73.4944 4.30605 74 5.52698 74 6.8V52.8128C73.9997 54.0848 73.4944 55.305 72.5952 56.2048L56.2048 72.5952C55.305 73.4944 54.0848 73.9997 52.8128 74H6.8C5.52698 74 4.30605 73.4944 3.40589 72.5942M72.5942 3.40589C71.6941 2.50571 70.473 2 69.2 2H23.1872C21.915 2.00027 20.695 2.50554 19.7952 3.4048L3.4048 19.7952C2.50554 20.695 2.00027 21.915 2 23.1872V69.2C2 70.473 2.50571 71.6941 3.40589 72.5942M72.5942 3.40589L54.8 21.2M3.40589 72.5942L21.2 54.8M54.8 73.568V21.2M54.8 21.2H2.43203M21.2 54.8H73.568M21.2 54.8V2.43203" stroke="#ED1C29" stroke-width="3" stroke-linecap="round" stroke-linejoin="round"/>
</svg>
