<svg width="76" height="76" viewBox="0 0 76 76" fill="none" xmlns="http://www.w3.org/2000/svg">
<path d="M11.6 21.2V50H23.6M11.6 40.4L20.2048 31.7952C20.6506 31.3492 21.1798 30.9954 21.7624 30.754C22.345 30.5125 22.9694 30.3883 23.6 30.3883C24.2306 30.3883 24.855 30.5125 25.4376 30.754C26.0202 30.9954 26.5494 31.3492 26.9952 31.7952L28.4256 33.2256M28.4 64.4H6.8C5.52698 64.4 4.30605 63.8944 3.40589 62.9942C2.50571 62.0941 2 60.873 2 59.6V6.8C2 5.52698 2.50571 4.30605 3.40589 3.40589C4.30605 2.50571 5.52698 2 6.8 2H40.8128C42.0848 2.00027 43.305 2.50554 44.2048 3.4048L53.3952 12.5952C54.2944 13.495 54.7997 14.715 54.8 15.9872V23.6M61.8794 61.8794C58.7286 65.0301 54.4557 66.8 50 66.8C45.5443 66.8 41.2714 65.0301 38.1206 61.8794C34.9699 58.7286 33.2 54.4557 33.2 50C33.2 45.5443 34.9699 41.2714 38.1206 38.1206C41.2714 34.9699 45.5443 33.2 50 33.2C54.4557 33.2 58.7286 34.9699 61.8794 38.1206C65.0301 41.2714 66.8 45.5443 66.8 50C66.8 54.4557 65.0301 58.7286 61.8794 61.8794ZM61.8794 61.8794L74 74" stroke="#ED1C29" stroke-width="3" stroke-linecap="round" stroke-linejoin="round"/>
</svg>
