<svg width="56" height="56" viewBox="0 0 56 56" fill="none" xmlns="http://www.w3.org/2000/svg">
<path d="M38.9364 46.784L51.2828 41.1857C52.5914 40.576 54.1462 41.14 54.7559 42.4487C55.3634 43.7595 54.7994 45.3142 53.4929 45.9218L34.3527 54.6318C33.6603 54.978 32.872 55.0847 32.1121 54.9322L11.4498 51.5158H7.96581M25.388 47.1629H37.5819C39.0235 47.1629 40.1949 45.9936 40.1949 44.5499C40.1949 43.1084 39.0235 41.9369 37.5819 41.9369H28.001C22.775 35.84 11.452 39.3239 11.452 39.3239H7.96799M1 36.7109H7.96799V54.1309H1M24.2644 33.1551L23.5393 30.7207L21.1048 29.9955C19.3759 29.4795 18.3481 27.7048 18.7662 25.9476L19.3541 23.4761L17.6078 21.6253C16.3709 20.3144 16.3709 18.2654 17.6078 16.9545L19.3541 15.1036L18.7662 12.6322C18.3481 10.8771 19.3759 9.10029 21.1048 8.58422L23.5393 7.85912L24.2644 5.42467C24.7804 3.69574 26.5551 2.66796 28.3123 3.08604L30.7838 3.67397L32.6347 1.92761C33.9455 0.690795 35.9946 0.690795 37.3054 1.92761L39.1563 3.67397L41.6277 3.08604C43.3828 2.66796 45.1596 3.69574 45.6757 5.42467L46.4008 7.85912L48.8353 8.58422C50.5642 9.10029 51.592 10.8749 51.1739 12.6322L50.586 15.1036L52.3323 16.9545C53.5691 18.2654 53.5691 20.3144 52.3323 21.6253L50.586 23.4761L51.1739 25.9476C51.592 27.7026 50.5642 29.4795 48.8353 29.9955L46.4008 30.7207L45.6757 33.1551C45.1596 34.884 43.385 35.9118 41.6277 35.4937L39.1563 34.9058L37.3054 36.6522M44.391 17.549C44.4955 18.1129 44.5499 18.6965 44.5499 19.291C44.5499 24.5823 40.2603 28.872 34.969 28.872C29.6776 28.872 25.388 24.5823 25.388 19.291C25.388 13.9997 29.6776 9.70999 34.969 9.70999C35.8748 9.70999 36.7523 9.83628 37.5841 10.0715M31.485 18.42L34.969 21.904L43.6789 11.452" stroke="#ED1C29" stroke-width="1.875" stroke-linecap="round" stroke-linejoin="round"/>
</svg>
