<svg width="56" height="56" viewBox="0 0 56 56" fill="none" xmlns="http://www.w3.org/2000/svg">
<path d="M14.9355 22.7742L15.5357 22.054C15.3672 21.9136 15.1548 21.8367 14.9355 21.8367V22.7742ZM20.1613 27.129L19.5611 27.8492C19.7296 27.9896 19.942 28.0665 20.1613 28.0665V27.129ZM46.2903 48.8367H45.3528V50.7117H46.2903V48.8367ZM50.6452 49.7742V50.7117C51.1629 50.7117 51.5827 50.292 51.5827 49.7742H50.6452ZM50.6452 17.5484H51.5827C51.5827 17.2856 51.4724 17.0349 51.2787 16.8573L50.6452 17.5484ZM40.1935 7.96774L40.827 7.27666C40.6541 7.11817 40.4281 7.03024 40.1935 7.03024V7.96774ZM20.1613 7.96774V7.03024C19.6435 7.03024 19.2238 7.44998 19.2238 7.96774H20.1613ZM19.2238 21.9032V22.8407H21.0988V21.9032H19.2238ZM42.002 14.9355C42.002 14.4177 41.5823 13.998 41.0645 13.998C40.5467 13.998 40.127 14.4177 40.127 14.9355H42.002ZM27.129 16.6109C26.6113 16.6109 26.1915 17.0306 26.1915 17.5484C26.1915 18.0662 26.6113 18.4859 27.129 18.4859V16.6109ZM34.9677 18.4859C35.4855 18.4859 35.9052 18.0662 35.9052 17.5484C35.9052 17.0306 35.4855 16.6109 34.9677 16.6109V18.4859ZM27.129 20.9657C26.6113 20.9657 26.1915 21.3855 26.1915 21.9032C26.1915 22.421 26.6113 22.8407 27.129 22.8407V20.9657ZM41.0645 22.8407C41.5823 22.8407 42.002 22.421 42.002 21.9032C42.002 21.3855 41.5823 20.9657 41.0645 20.9657V22.8407ZM4.41734 18.4194V19.3569H6.29234V18.4194H4.41734ZM5.35484 13.1935V12.256C4.83707 12.256 4.41734 12.6758 4.41734 13.1935H5.35484ZM20.1613 14.131H21.0988V12.256H20.1613V14.131ZM7.90121 7.96774V8.90524H9.77621V7.96774H7.90121ZM8.83871 1V0.0625C8.32094 0.0625 7.90121 0.482233 7.90121 1L8.83871 1ZM38.4516 1H39.3891C39.3891 0.482233 38.9694 0.0625 38.4516 0.0625V1ZM37.5141 3.6129V4.5504H39.3891V3.6129H37.5141ZM50.6452 54.0625H4.48387V55.9375H50.6452V54.0625ZM4.48387 54.0625C3.0768 54.0625 1.9375 52.9232 1.9375 51.5161H0.0625C0.0625 53.9587 2.04127 55.9375 4.48387 55.9375V54.0625ZM1.9375 51.5161V26.2581H0.0625V51.5161H1.9375ZM1.9375 26.2581C1.9375 24.851 3.0768 23.7117 4.48387 23.7117V21.8367C2.04127 21.8367 0.0625 23.8155 0.0625 26.2581H1.9375ZM4.48387 23.7117H14.9355V21.8367H4.48387V23.7117ZM14.3353 23.4944L19.5611 27.8492L20.7615 26.4088L15.5357 22.054L14.3353 23.4944ZM20.1613 28.0665H42.8064V26.1915H20.1613V28.0665ZM42.8064 28.0665C44.2135 28.0665 45.3528 29.2058 45.3528 30.6129H47.2278C47.2278 28.1703 45.2491 26.1915 42.8064 26.1915V28.0665ZM45.3528 30.6129V50.6452H47.2278V30.6129H45.3528ZM45.3528 50.6452C45.3528 53.5668 47.7235 55.9375 50.6452 55.9375V54.0625C48.7591 54.0625 47.2278 52.5313 47.2278 50.6452H45.3528ZM50.6452 55.9375C53.5668 55.9375 55.9375 53.5668 55.9375 50.6452H54.0625C54.0625 52.5313 52.5313 54.0625 50.6452 54.0625V55.9375ZM55.9375 50.6452V25.3871H54.0625V50.6452H55.9375ZM46.2903 50.7117H50.6452V48.8367H46.2903V50.7117ZM51.5827 49.7742V17.5484H49.7077V49.7742H51.5827ZM51.2787 16.8573L40.827 7.27666L39.5601 8.65882L50.0117 18.2395L51.2787 16.8573ZM40.1935 7.03024H20.1613V8.90524H40.1935V7.03024ZM19.2238 7.96774V21.9032H21.0988V7.96774H19.2238ZM50.6452 16.6109H41.9355V18.4859H50.6452V16.6109ZM41.9355 16.6109C41.9567 16.6109 41.9741 16.6204 41.9833 16.6296C41.9925 16.6388 42.002 16.6562 42.002 16.6774H40.127C40.127 17.6742 40.9387 18.4859 41.9355 18.4859V16.6109ZM42.002 16.6774V14.9355H40.127V16.6774H42.002ZM27.129 18.4859H34.9677V16.6109H27.129V18.4859ZM27.129 22.8407H41.0645V20.9657H27.129V22.8407ZM6.29234 18.4194V13.1935H4.41734V18.4194H6.29234ZM5.35484 14.131H20.1613V12.256H5.35484V14.131ZM9.77621 7.96774V1H7.90121V7.96774H9.77621ZM8.83871 1.9375H38.4516V0.0625H8.83871V1.9375ZM37.5141 1V3.6129H39.3891V1H37.5141Z" fill="#ED1C29"/>
</svg>
