<svg width="56" height="56" viewBox="0 0 56 56" fill="none" xmlns="http://www.w3.org/2000/svg">
<path d="M55 48.9032H55.9375C55.9375 48.3855 55.5178 47.9657 55 47.9657V48.9032ZM25.3871 48.9032V47.9657C24.8693 47.9657 24.4496 48.3855 24.4496 48.9032H25.3871ZM1 7.09677H0.0625C0.0625 7.61454 0.482233 8.03427 1 8.03427L1 7.09677ZM6.22581 8.03427H7.16331V6.15927H6.22581V8.03427ZM50.2977 31.8139L49.6348 31.1509L48.309 32.4768L48.9719 33.1397L50.2977 31.8139ZM43.9832 38.1284L43.3203 37.4655L41.9945 38.7913L42.6574 39.4542L43.9832 38.1284ZM31.4839 17.4819C30.9661 17.4819 30.5464 17.9016 30.5464 18.4194C30.5464 18.9371 30.9661 19.3569 31.4839 19.3569V17.4819ZM38.4516 19.3569C38.9694 19.3569 39.3891 18.9371 39.3891 18.4194C39.3891 17.9016 38.9694 17.4819 38.4516 17.4819V19.3569ZM28 25.3206C27.4822 25.3206 27.0625 25.7403 27.0625 26.2581C27.0625 26.7758 27.4822 27.1956 28 27.1956V25.3206ZM38.4516 27.1956C38.9694 27.1956 39.3891 26.7758 39.3891 26.2581C39.3891 25.7403 38.9694 25.3206 38.4516 25.3206V27.1956ZM31.4839 33.1593C30.9661 33.1593 30.5464 33.579 30.5464 34.0968C30.5464 34.6145 30.9661 35.0343 31.4839 35.0343V33.1593ZM38.4516 35.0343C38.9694 35.0343 39.3891 34.6145 39.3891 34.0968C39.3891 33.579 38.9694 33.1593 38.4516 33.1593V35.0343ZM19.2903 19.2238C18.7726 19.2238 18.3528 19.6435 18.3528 20.1613C18.3528 20.6791 18.7726 21.0988 19.2903 21.0988V19.2238ZM25.3871 21.0988C25.9049 21.0988 26.3246 20.6791 26.3246 20.1613C26.3246 19.6435 25.9049 19.2238 25.3871 19.2238V21.0988ZM19.2903 25.3206C18.7726 25.3206 18.3528 25.7403 18.3528 26.2581C18.3528 26.7758 18.7726 27.1956 19.2903 27.1956V25.3206ZM23.6452 27.1956C24.1629 27.1956 24.5827 26.7758 24.5827 26.2581C24.5827 25.7403 24.1629 25.3206 23.6452 25.3206V27.1956ZM19.2903 31.4173C18.7726 31.4173 18.3528 31.8371 18.3528 32.3548C18.3528 32.8726 18.7726 33.2923 19.2903 33.2923V31.4173ZM25.3871 33.2923C25.9049 33.2923 26.3246 32.8726 26.3246 32.3548C26.3246 31.8371 25.9049 31.4173 25.3871 31.4173V33.2923ZM7.09677 1.9375H42.8064V0.0625H7.09677V1.9375ZM42.8064 1.9375C45.6593 1.9375 47.9657 4.2439 47.9657 7.09677H49.8407C49.8407 3.20836 46.6949 0.0625 42.8064 0.0625V1.9375ZM47.9657 7.09677V12.3226H49.8407V7.09677H47.9657ZM19.2903 55.9375H48.9032V54.0625H19.2903V55.9375ZM48.9032 55.9375C52.7742 55.9375 55.9375 52.7742 55.9375 48.9032H54.0625C54.0625 51.7387 51.7387 54.0625 48.9032 54.0625V55.9375ZM55 47.9657H25.3871V49.8407H55V47.9657ZM24.4496 48.9032C24.4496 51.7387 22.1258 54.0625 19.2903 54.0625V55.9375C23.1613 55.9375 26.3246 52.7742 26.3246 48.9032H24.4496ZM19.2903 54.0625C16.4549 54.0625 14.131 51.7387 14.131 48.9032H12.256C12.256 52.7742 15.4193 55.9375 19.2903 55.9375V54.0625ZM14.131 48.9032V7.09677H12.256V48.9032H14.131ZM14.131 7.09677C14.131 3.22578 10.9678 0.0625 7.09677 0.0625V1.9375C9.93223 1.9375 12.256 4.26132 12.256 7.09677H14.131ZM7.09677 0.0625C3.22578 0.0625 0.0625 3.22578 0.0625 7.09677H1.9375C1.9375 4.26132 4.26132 1.9375 7.09677 1.9375V0.0625ZM1 8.03427H6.22581V6.15927H1V8.03427ZM49.7077 26.2581C49.7077 32.9556 44.2782 38.3851 37.5806 38.3851V40.2601C45.3137 40.2601 51.5827 33.9912 51.5827 26.2581H49.7077ZM37.5806 38.3851C30.8831 38.3851 25.4536 32.9556 25.4536 26.2581H23.5786C23.5786 33.9912 29.8475 40.2601 37.5806 40.2601V38.3851ZM25.4536 26.2581C25.4536 19.5605 30.8831 14.131 37.5806 14.131V12.256C29.8475 12.256 23.5786 18.525 23.5786 26.2581H25.4536ZM37.5806 14.131C44.2782 14.131 49.7077 19.5605 49.7077 26.2581H51.5827C51.5827 18.525 45.3137 12.256 37.5806 12.256V14.131ZM48.9719 33.1397L52.2729 36.4407L53.5987 35.1148L50.2977 31.8139L48.9719 33.1397ZM52.2729 36.4407C53.64 37.8078 53.64 40.0622 52.2729 41.4293L53.5987 42.7552C55.6981 40.6558 55.6981 37.2142 53.5987 35.1148L52.2729 36.4407ZM52.2729 41.4293C50.9058 42.7965 48.6513 42.7965 47.2842 41.4293L45.9584 42.7552C48.0577 44.8545 51.4994 44.8545 53.5987 42.7552L52.2729 41.4293ZM47.2842 41.4293L43.9832 38.1284L42.6574 39.4542L45.9584 42.7552L47.2842 41.4293ZM31.4839 19.3569H38.4516V17.4819H31.4839V19.3569ZM28 27.1956H38.4516V25.3206H28V27.1956ZM31.4839 35.0343H38.4516V33.1593H31.4839V35.0343ZM19.2903 21.0988H25.3871V19.2238H19.2903V21.0988ZM19.2903 27.1956H23.6452V25.3206H19.2903V27.1956ZM19.2903 33.2923H25.3871V31.4173H19.2903V33.2923Z" fill="#ED1C29"/>
</svg>
