<svg width="52" height="56" viewBox="0 0 52 56" fill="none" xmlns="http://www.w3.org/2000/svg">
<path d="M15.9047 10.2389C17.335 11.2343 18.6038 12.4511 19.6685 13.8551L19.9099 14.1647C24.0535 19.6169 31.9698 20.1281 36.77 15.2627L40.3155 11.6663L37.8436 10.4549C35.4781 9.29925 33.4125 7.59464 31.8154 5.47783C27.686 -0.0014067 19.7378 -0.53781 14.9287 4.34202L11.4204 7.90065L11.4488 7.91504" stroke="#ED1C29" stroke-width="1.875" stroke-linecap="round" stroke-linejoin="round"/>
<path d="M7.52539 10.7056C9.9867 8.18381 12.8934 6.98321 16.3769 6.66281C20.3963 6.29201 24.3695 7.76441 27.207 10.6768" stroke="#ED1C29" stroke-width="1.875" stroke-linecap="round" stroke-linejoin="round"/>
<path d="M1 54.9997L4.18001 14.8252H11.0635L14.2435 54.9997H1Z" stroke="#ED1C29" stroke-width="1.875" stroke-linecap="round" stroke-linejoin="round"/>
<path d="M47.891 37.8584H51V54.9981H18.1636" stroke="#ED1C29" stroke-width="1.875" stroke-linecap="round" stroke-linejoin="round"/>
<path d="M11.1405 20.6797H7.87354" stroke="#ED1C29" stroke-width="1.875" stroke-linecap="round" stroke-linejoin="round"/>
<path d="M11.8455 25.5195H7.41797" stroke="#ED1C29" stroke-width="1.875" stroke-linecap="round" stroke-linejoin="round"/>
<path d="M23.7355 42.0967H27.833C28.4878 42.0967 29.0184 42.6367 29.0184 43.2991V50.3659H22.5483V43.2991C22.5483 42.6349 23.0807 42.0967 23.7338 42.0967H23.7355Z" stroke="#ED1C29" stroke-width="1.875" stroke-linecap="round" stroke-linejoin="round"/>
<path d="M36.8171 42.0967H40.9145C41.5693 42.0967 42.0999 42.6367 42.0999 43.2991V50.3659H35.6299V43.2991C35.6299 42.6349 36.1622 42.0967 36.8153 42.0967H36.8171Z" stroke="#ED1C29" stroke-width="1.875" stroke-linecap="round" stroke-linejoin="round"/>
<path d="M47.8918 37.8585L39.8726 28.8477H36.9517V37.7523" stroke="#ED1C29" stroke-width="1.875" stroke-linecap="round" stroke-linejoin="round"/>
<path d="M36.9504 37.8585L28.9312 28.8477H26.0103V37.7523" stroke="#ED1C29" stroke-width="1.875" stroke-linecap="round" stroke-linejoin="round"/>
<path d="M26.01 37.8585L17.989 28.8477H15.5312" stroke="#ED1C29" stroke-width="1.875" stroke-linecap="round" stroke-linejoin="round"/>
</svg>
