<svg width="167" height="89" viewBox="0 0 167 89" fill="none" xmlns="http://www.w3.org/2000/svg">
<path d="M27.6061 55.2164C34.2544 52.6166 34.9421 46.1169 34.9421 42.7857C34.9421 38.6423 33.8722 29.5428 21.6456 29.5428H2.61801V68.4593H12.0171V56.11H18.2831L24.9313 68.4593H35.0181V67.2408L27.6061 55.2164ZM12.0171 48.3111V37.4245H20.4229C24.2436 37.4245 25.619 39.293 25.619 42.7864C25.619 46.2798 24.2436 48.3111 20.4229 48.3111H12.0171Z" fill="#1E1E1E"/>
<path d="M37.6906 53.3479C37.6906 62.1225 43.1923 68.7843 53.1263 68.7843C63.0603 68.7843 68.6386 62.1225 68.6386 53.3479C68.6386 43.517 62.1431 37.8302 53.1263 37.8302C44.1094 37.8302 37.6906 43.517 37.6906 53.3479ZM53.1263 60.8225C48.6939 60.8225 46.478 57.3292 46.478 53.3479C46.478 49.8546 48.3884 45.7112 53.1263 45.7112C57.8641 45.7112 59.7745 49.8546 59.7745 53.3479C59.7745 57.3292 57.5587 60.8225 53.1263 60.8225Z" fill="#1E1E1E"/>
<path d="M96.5284 29.5435V45.0613H80.7106V29.5435H71.3115V68.46H80.7106V52.9423H96.5284V68.46H106.004V29.5435H96.5284Z" fill="#1E1E1E"/>
<path d="M125.564 44.4113C123.577 44.0863 119.603 43.5178 119.603 40.6736C119.603 37.5867 123.882 37.4238 124.417 37.4238C126.022 37.4238 130.378 37.6674 133.281 40.7551L139.089 35.3118C134.963 30.1935 130.148 29.2185 124.34 29.2185C115.782 29.2185 109.898 34.1747 109.898 41.1615C109.898 55.0543 129.919 49.6924 129.919 56.7606C129.919 60.254 125.333 60.3355 124.493 60.3355C121.055 60.3355 116.699 58.0606 114.254 54.7293L108.675 60.904C111.503 65.8602 117.616 68.785 124.417 68.785C133.128 68.785 139.471 64.3167 139.471 56.7606C139.471 47.9047 132.059 45.7112 125.564 44.4113Z" fill="#1E1E1E"/>
<path d="M12.3635 86.3691L10.3412 83.6148C9.58593 84.4571 8.48082 85.2026 7.32151 85.2026C4.51721 85.2026 3.78939 82.6427 3.78939 80.9581C3.78939 78.9493 4.7868 76.5838 7.32151 76.5838C8.18448 76.5838 9.20934 76.8429 10.0716 77.9126L12.1748 75.4173C10.7459 73.6997 9.10095 72.955 7.32151 72.955C2.71032 72.955 0.472656 76.8106 0.472656 80.9581C0.472656 85.1057 2.36049 88.7345 7.32151 88.7345C9.20934 88.7345 10.9888 88.0544 12.3635 86.3691Z" fill="#1E1E1E"/>
<path d="M24.2021 88.7346C28.139 88.7346 31.1319 85.7536 31.1319 80.8613C31.1319 75.969 28.1657 72.955 24.2021 72.955C20.2385 72.955 17.2991 76.0006 17.2991 80.8613C17.2991 85.722 20.292 88.7346 24.2021 88.7346ZM24.2021 76.3571C26.1977 76.3571 27.8152 78.2361 27.8152 80.8613C27.8152 83.6156 26.3053 85.3001 24.2021 85.3001C22.2608 85.3001 20.6158 83.6801 20.6158 80.8613C20.6158 78.0424 22.2608 76.3571 24.2021 76.3571Z" fill="#1E1E1E"/>
<path d="M47.5017 73.0841L43.1066 79.9207L38.6573 73.0841H36.0684V88.6047H39.3584V79.2405L42.7019 84.2304H43.5381L46.8006 79.2728V88.6047H50.0906V73.0841H47.5017Z" fill="#1E1E1E"/>
<path d="M55.0262 73.0841V88.6047H58.3429V83.6794H61.7406C66.0547 83.6794 66.4327 80.0505 66.4327 78.3652C66.4327 76.68 66.0555 73.0834 61.7406 73.0834H55.0269L55.0262 73.0841ZM58.3429 80.5692V76.2272H61.2824C62.6303 76.2272 63.1427 76.9727 63.1427 78.366C63.1427 79.7592 62.6303 80.5692 61.2824 80.5692H58.3429Z" fill="#1E1E1E"/>
<path d="M74.6312 85.4615V73.0841H71.3687V88.6047H81.0486V85.4615H74.6312Z" fill="#1E1E1E"/>
<path d="M89.3826 73.0841H85.9849V88.6047H89.3826V73.0841Z" fill="#1E1E1E"/>
<path d="M104.943 88.6047H108.475L103.082 73.0841H99.684L94.3183 88.6047H97.8504L98.5515 86.3691H104.214L104.943 88.6047ZM99.4961 83.1937L101.384 77.1348L103.298 83.1937H99.4961Z" fill="#1E1E1E"/>
<path d="M122.364 73.0841V82.4805L116.35 73.0841H113.411V88.6047H116.701V79.2082L122.687 88.6047H125.626V73.0841H122.364Z" fill="#1E1E1E"/>
<path d="M141.618 73.0841H130.563V76.2272H134.419V88.6047H137.736V76.2272H141.618V73.0841Z" fill="#1E1E1E"/>
<path d="M133.281 40.7551C138.127 36.6672 149.352 38.2696 158.406 27.4427C167.46 16.6165 165.973 0.5 165.973 0.5C165.973 0.5 149.807 1.9375 140.753 12.7637C131.7 23.5906 133.281 40.7551 133.281 40.7551Z" fill="#008033"/>
<path d="M133.281 40.7551C130.832 38.7413 125.228 39.6152 120.631 34.2582C116.033 28.9013 116.673 20.8321 116.673 20.8321C116.673 20.8321 124.767 21.447 129.364 26.804C133.962 32.1609 133.281 40.7551 133.281 40.7551Z" fill="#2CA02C"/>
<path d="M133.282 40.755L124.029 29.9162L132.59 35.271C137.377 19.5722 151.016 13.7288 157.755 10.3225C145.18 21.4975 137.568 32.3265 133.282 40.755Z" fill="white"/>
</svg>
