<svg width="160" height="22" viewBox="0 0 160 22" fill="none" xmlns="http://www.w3.org/2000/svg">
<path d="M42.8228 5.42677H47.1482V11.7908H57.0472V5.42677H61.3727V21.7071H57.0472V15.1087H47.1482V21.7071H42.8228V5.42677ZM86.1522 5.42677H90.483V18.4052H98.4513V21.7124H86.1576V5.42677H86.1522ZM121.081 21.7071L113.561 5.42677H108.11L100.606 21.7071H105.172L106.244 19.252H115.423L116.495 21.7071H121.081ZM107.524 16.3389L110.804 8.83515H110.884L114.158 16.3389H107.524ZM137.349 5.42677V15.8756L127.311 5.42677H123.535V21.7071H127.764V11.1678L137.802 21.7071H141.557V5.42677H137.349ZM144.997 5.42677H160V8.5955H149.328V12.0145H158.368V14.917H149.328V18.5384H160V21.7071H144.997V5.42677ZM69.037 21.1266C67.7036 20.5461 66.6689 19.6834 65.9329 18.549C65.1968 17.4147 64.8288 16.03 64.8288 14.3951V5.42677H69.1596V14.2832C69.1596 15.2099 69.3356 15.9927 69.693 16.6425C70.045 17.2922 70.5624 17.7768 71.2397 18.107C71.9171 18.4372 72.7598 18.6023 73.7731 18.6023C74.7865 18.6023 75.6079 18.4372 76.2959 18.107C76.9839 17.7768 77.4959 17.2869 77.8426 16.6425C78.1893 15.9981 78.36 15.2099 78.36 14.2832V5.42677H82.7014V14.3951C82.7014 16.03 82.3334 17.4093 81.6027 18.5437C80.872 19.678 79.8373 20.5355 78.4986 21.1213C77.1599 21.7071 75.5812 22 73.7678 22C71.9544 22 70.365 21.7071 69.0316 21.1266H69.037Z" fill="#1E1E1E"/>
<path d="M23.9955 8.27596H31.2597L30.9024 9.2612H23.6381L23.2434 10.3529H30.5077L30.1503 11.3382H22.8861L22.4861 12.4406H29.7557L29.3983 13.4258H22.1287L21.7447 14.4749H14.4965L11.8564 21.7124H4.60815L7.24824 14.4749H0L0.357345 13.4897H7.60559L8.01093 12.3767H0.752025L1.10937 11.3914H8.36828L8.76296 10.2997H1.50938L1.86673 9.31445H9.12564L9.52032 8.22271H2.26141L2.61875 7.23747H9.87766L12.5178 0H19.766L17.1259 7.23747H24.3741L23.9955 8.27596ZM27.0142 0L24.3741 7.23747H31.6224L34.2625 0H27.0142ZM19.0993 21.7071H26.3475L28.9876 14.4696H21.7394L19.0993 21.7071Z" fill="#ED1C29"/>
</svg>
